<svg xmlns="http://www.w3.org/2000/svg" width="400" height="400" fill-rule="evenodd"><path d="M249 96l-1 3c-2 0-2 1-2 7 0 7 0 8 2 8 1 0 1 0 1 1 0 1 1 3 2 4l1 2c0 1 1 2 2 2 1 0 1 0 1 1 0 1 1 2 2 2h1v4c0 4 1 5 2 5 1 0 1 0 1 3 0 3 1 5 2 6 1 0 1 1 1 2s0 2 1 3l4 6c-2 1-2 2-2 19 0 17 0 17 2 17 1 0 1 0 1 2 0 3 0 4 2 4 1 0 1 0 1 1 0 1 1 2 2 2 1 0 1 0 1 1 0 2 1 2 6 2l6-2 4-4 2 2c1 0 1 0 1 1 0 2 0 2 2 2 1 0 1 0 1 1 0 1 1 2 2 2 1 0 1 1 1 1 0 1 1 2 3 2l2 1 8 5c2 0 3-1 3-5l-2-4c-1 0-1 0-1-1l-1-1c-1 0-1-1-1-2l-1-2c-1 0-1 0-1-1l-2-2c-1 0-1 0-1-3l-2-3c-1 0-1-1-1-1l-2-4c-1 0-1-1-1-2l-5-11c-1 0-1-1-2-2-1-2-5-2-5 0l-1 1c-1 0-2 1-2 3l-6 7c0 0-1-2-1-9v-9l3-11-2-9c-1 0-1 0-1-1l-1-2h-1l-2-9c-1 0-1 0-1-3l-2-6c-1-1-1-1-2-3l-2-3c-1 0-1-1-1-2l-2-2c-1 0-1 0-1-1l-1-3c-2-2-2-2 2-2l3 1c0 1 1 2 2 2l2 1c0 1 2 2 5 2l3 1c0 1 1 2 8 2l5 1c0 1 2 2 5 2 1 0 1 0 2 1l3 2c2 0 2 0 3 2l2 1c1 0 1 0 2 1l2 2c1 0 2 1 2 1l7 6c0 0 0 1 1 1l3 4c1 0 1 0 1 2l1 2c1 0 1 1 1 1 0 1 1 2 2 2h1v6l3 1v2c0 3 0 3 2 3 1 0 1 0 1 3 0 3 0 3 1 5l4 7c1 0 1 1 1 2l2 4c1 0 1 1 1 2 0 3 1 4 2 4 1 0 1 0 1 2l2 2c1 0 2 0 2 1 0 2 1 2 5 2l4 1c0 1 2 2 4 2l2 1c0 1 2 2 4 2 1 0 1 0 1 1 0 1 0 1 1 1 0 0 0 0-1 1l-2 2v1h-4c-5 0-5 0-5 6 0 5 1 7 2 8 0 0 1 1 1 1s0 1 0 1 0 0 0 1c0 1 3 2 4 2 1 0 1 0 1 1 0 2 1 2 2 2 1 0 1 0 2 1 0 1 2 2 5 2l2 1c0 1 3 2 5 2 1 0 1 0 1 1l2 2c1 0 1 1 2 1 1 1 2 2 5 2 4 0 8-4 4-5-1 0-1-1-1-2l-2-2c-1 0-1 0-2-2l-1-2c-1 0-1 0-1-2l-2-2c-1 0-1 0-1-1l-2-2c-1 0-1 0-1-1l-2-2-4-3c-1-1-1-1 3-1l6-2c0-1 1-1 3-1 3 0 3 0 3-4l-2-5c-1 0-1 0-1-1l-2-2c-1 0-1 0-1-1l-6-5c-1 0-1 0-1-1-1-1-3-2-4-2-1 0-1 0-1-1 0-1-1-2-3-2l-2-2c-2-2-2-2-4-2h-3v-1c0-1 0-1-2-1l-3-2c0 0-1-1-1-1l-1-3c-1 0-2-2-2-4l-2-5c-1 0-1-1-1-2l-2-5c-1 0-1 0-1-3l-5-10c-1 0-1 0-1-3l-2-4c0 0-1 0-1-1l-2-2c-1 0-1 0-1-1l-2-4c-1 0-1 0-1-2l-2-2c-1 0-1 0-1-1l-2-2c-1 0-1 0-1-1l-2-2c-1 0-1-1-1-1l-2-2c-1 0-1 0-1-1-1-1-3-3-5-3-1 0-1 0-1-1l-2-1c-1 0-1 0-2-1 0-1-1-2-4-2-2 0-2 0-2-1 0-2-1-2-3-2l-3-1c0-2-1-2-9-2l-10-4c0-1-2-2-4-2l-2-1-2-2h-19m28 25c0 0 0 0-1 0-2 0-2 3-1 4l1 2c0 2 1 2 2 2 1 0 1 0 1 1 0 3 3 5 4 3 1-1 1-1 2-1 4 0 3-10 0-12h-10M14 217h-2c-1 0-1 1-1 1 0 1 0 1-3 1l-7 4V285a87 87 0 0 0 18 0 101 101 0 0 0 1-18v-17l2 1c1 0 1 0 1 3 0 3 1 4 2 4 1 0 1 0 1 3 0 3 0 3 2 4l2 3c0 2 1 4 2 5 1 0 1 0 1 3 0 3 0 4 2 4 1 0 1 0 1 1 0 2 0 2 2 2 1 0 1 0 2 1 0 2 1 2 10 2l11-3c0 0 1-1 1-1l2-2c1 0 1 0 2-2 0-2 1-4 2-4 1 0 1-2 1-4 0-2 0-2 1-3 1 0 2-1 2-4 0-2 0-2 1-2 1 0 2-1 2-4 0-2 0-2 1-2 1 0 2-1 2-5a135 135 0 0 1 0 15c0 19 0 21 2 21h17l-21-66c0 1 0 1-2 1l-4 2-1 2c-1 0-2 3-2 6l-4 9c-1 0-2 1-2 4l-1 2c-1 0-1 0-2 3l-1 3c-1 1-2 3-2 6l-3 5-2-5c-1 0-1 0-1-3l-2-4c-1 0-1 0-1-3l-8-19c-1 0-1 0-1-3l-2-4c-1 0-1 0-1-1 0-1-1-2-4-2-2 0-2 0-2-1 0-2-5-3-9-2m138 20l-2 2c-2 1-2 1-2 17l-14 14h-14v-31c0 0-3 0-9 0h-9v36c0 0 1 1 2 1 1 0 1 0 1 1 0 2 0 2 2 2 1 0 1 0 2 2v2l9 2c1 2 1 2 17 2l14 3-47 12a1107 1107 0 0 0 58 0c1 0 1-1 1-1l2-2c3 0 3-1 4-4l2-3c2-1 2-1 2-26l-18-28" fill="#04648c"/><path d="M273 99c0 0 0 0 1 1s1 1 1 1 1 1 1 1l-1-1c-1-1-2-1-2-1m-14 10l1 1c0 0 0 0 0 0l-2-2c0 0 0 0 0 1m9 2l2 2c1 0 0 0 0-1l-2-2c0 0 0 0 0 1m-22 1c0 1 1 2 2 1 0 0 0 0 0 0 0 0-1 0-1-1 0-1 0-1 0 0m4 6l1 2c1 1 1 0 0 0l-1-2c0 0 0 0 0 1m65 0c0 0 0 0 1 0s1 0 1 1l1 1-2-2c-1 0-1 0-1 0m-28 3l1 1c0 0 1 1 1 1h1l-3-3m-11 1c-1 2-1 4 1 5 1 0 1 0 0-1-2-1-2-4 1-5 0 0 0 0 0 0 0 0-1 0-1 1m31 7c0 1 2 1 2 1 0 0 0 0 0 0H306c0 0-1 0-1 0m3 3c0 1 1 2 1 1 0 0 0-1-1-1-1-1-1-1-1 0m-28 2c0 1 2 2 3 2 1 0 2-1 2-2 0 0 0 0-1 1-1 1-2 1-3 0-1-1-1-1-1-1m31 0c0 1 1 2 2 2 1 0 1 0 0-1-1 0-1-1-1-1s0 0 0 0m19 0c1 0 1 1 2 1l1 1-3-3c-1 0-1 0 0 1m-16 3c0 1 1 2 2 2 1 0 1 0 0-1l-1-2c0-1 0-1 0 0m-53 6c0 1 1 2 2 2 0 0 0 0 0 0 0 0-1-1-1-1 0-1 0-1 0 0m3 6l2 2c0 0 0-1-1-1-1-1-1-1-1 0m4 7V157c0 0 0 0 0 0l1-1c1 0 1 0 0 0 0 0-1 0-1 1m78 6c1 0 1 1 2 2v1l-2-3m-68 3l-1 2c1 0 3-3 2-3 0 0-1 1-2 1m71 3c0 0 1 1 1 1l1 1-2-2c0 0 0 0 0 0m-15 1c0 0 0 1 1 1 1 1 2 0 0-1-1-1-1-1-1 0m-45 2h1c0 0 0 0-1 0h-1m6 4l1 1c0 1 0 1 0 0 0-1-1-2-1-2 0 0 0 0 0 0m42 0c0 1 1 2 1 1 0 0 0-1-1-1-1-1-1-1-1 0m16 1c1 1 1 1 1 0l-1-1c0 0 0 0 0 1m-70 2c0 0-1 1-1 1 0 1 0 1 1 0v-1m13 3l1 1c0 0 1 1 1 0l-2-2c0 0 0 0 0 1m60 0l1 1c0 1 0 1 0 0l-2-2c0 0 0 0 0 1m-16 0c0 1 2 1 2 1 0 0 0 0 0 0H340c0 0-1 0-1 0m-61 2l1 2c0 1 0 1 0 0 0-1-1-2-1-2-1 0 0 0 0 1m21 3c0 0 1 1 1 1l1 1-2-2c0 0 0 0 0 0m68 0c0 0 2 3 3 3 0 0-1-2-2-2h-1m10 6l2 2c1 1 1 1 0 0l-2-2c-1 0-1 0 0 0m-19 5c0 0 2 1 2 1 0 0 0 0-1-1h-1m6 2c0 1 1 2 1 2 0 0 0 0 0 0 0 0-1-1-1-1L364 199m-74 2c-1 0-1 1 0 1 1 0 2-1 2-1 0 0-1 0-1 0m21 5l2 2-2-2c-1 0-1 0 0 0m-6 6l2 2c0 0 1 1 1 1l3 2c1 0 1 0 0 0-2-1-5-4-6-5 0-1-1-1-1 0m51 2v1c1 1 1 1 1-1 0-2-1-2-1-1m28 1l-1 2c1 0 1-1 1-2 0 0 0 0 0 0m-299 4l1 1c0 0-1-1-2-2-1 0-1 0 0 1m290-1l1 1c0 0 1 1 1 0l-2-2c-1 0-1 0 0 0m-195 2c-1 0-1 1-2 2 0 1-1 1-2 1-1 0-1 0-2 2l-1 2c-2 0-2 0-2 13 0 12 0 12 2 12 1 0 1 0 1 2l2 2c1 0 2 0 2 1 0 2 0 2 7 2l6 1c0 2 2 2 13 2l11 3-1 4c-1 0-1 1-1 2 0 1 0 1-20 1l-21 15a645 645 0 0 0 48 0c1 0 1-1 1-2l8-4c1 0 1 0 2-2l3-13-2-13c-1 0-1 0-1-2v-1l-6-1c0-2 0-2-16-2h-15v-10l3-1a145 145 0 0 1 17-1l20-2c1 0 1-1 1-6v-6h-26a475 475 0 0 0-28 0m67 0c0 0 0 1 0 2v1l-8 3c-2 0-2 0-2 25 0 26 0 26 2 27 0 0 1 1 1 1 1 1 2 2 5 2l3 2 2 2 34 1c0 1 1 2 2 2 1 0 1 0 1 1l2 1c1 0 1 0 2 2v1l19-9c-1 0-1 0-1-1l-2-2c0 0-1 0-1-1l-1-1c-1 0-1-1 0-1 2 0 2 0 2-27l-2-26c-1 0-1 0-1-1l-2-2c-1 0-1 0-2-1-1-2-1-2-27-2h-24m62 0l2 55c1 0 2 0 2 2s0 2 1 2c1 0 1 0 1 1 0 2 1 2 4 2l4 2c0 0 1 0 1 1a368 368 0 0 0 46 0v-4c0-3 0-3 0-3 0 0 1 1 2 1 1 0 1 0 1 2 0 2 0 2 2 2 2 0 2 0 2 2v2l15-2c0-1 0-1 2-1h2l-1-18c-1 0-1 0-2-2v-1h-7c-9 0-11 1-11 5l-1 1c-1 0-2 1-2 3v1a140 140 0 0 0-20 0h-20l-12-50c-7 0-9 0-9 0m47 0c0 1 1 2 2 2 1 0 1 0 0 0 0 0-1-1-1-1s-1-1-1 0M3 222c-1 1-1 2 1 0l1-1-1 1m359 2c0 1 1 2 2 2 1 0 1 0 0 0l-1-1c0 0 0 0-1-1 0-1 0-1 0 0m-296 0c0 0-1 1-1 1 0 1 0 1 0 0l1-1c0 0 0 0 1 0h1c0 0 0 0-1 0m305 6c0 1 0 2 2 2h1l-1-1c-1 0-1-1-1-1 0 0 0-1 0 0m6 3l2 2c2 0 2 0 0 0-1 0-1-1-2-1V233v1m-220 3h5c1 0 0 0-3 0h-2m132 14v14c0 0-1 0-2 0-1 0-1 0-1-1 0-2 0-2-11-2l-10 4c0 4 0 5 2 5 0 0-1 0-2 0h-3l-2-3c-1 0-1 0-1-14l1-14c1 0 1-1 1-1v-1l28 15m-123-14l3 2-3-3c0 0 0 0 0 0m229 0c0 0 0 0 1 1 4 1 1 5-3 5-2 0-2 0-1 1 1 1 4 1 5 0l1-6c-1-1-2-1-2-1m-359 0c0 0 1 1 2 2 2 2 2 1 0-1-1-1-2-2-2-1m350 3c0 1 1 2 1 2 0 0 0-1 0-1h-1M52 253c-1 1 0 1 1 0v-1l-1 1m-5 7l1 2c0 1 0 1 0 0l-1-2c0 0 0 0 0 1m-20 6l2 2c0 0-1-1-1-2-2-2-2-2-1 0m3 7l2 2c0 0 0 0 0 0 0 0-1-1-1-1l-1-1v1m35 3l-1 1h1c1 0 1-1 1-1 0-1 0-1-1 1m-4 6c0 1 0 1 1 0v-1H61m-3 4l-1 2c0 0 3-2 3-3 0-1 0-1-2 1m58 0l1 1c0 0 0 0 0-1l-1-1c-1 0-1 0 0 1m49 14c-1 0-1 1 0 1 1 0 2-1 2-1 0 0-1 0-1 0m-5 1c0 1 0 1 1 0l1-1-2 1" fill="#e48c04"/></svg>