<svg xmlns="http://www.w3.org/2000/svg" width="400" height="400" fill-rule="evenodd"><path d="M146 136.2c-.1.1-.7.3-1.3.4-1.5.3-2 .6-1.7 1.4.2.8-.4 1.2-2.4 1.5-1.8.3-3.3 1.2-3.6 2-.2.8-.6 1-2.5 1-.5 0-1 .2-1 .4s-.2.3-.4.1-.4 0-.4.4c0 1-2.6 2.6-4 2.3-.3-.1-2.2 2-2 2 .4.7-.8 1.2-3.8 1.5-.3 0-.5.2-.5.4s-.2.3-.5.2-.5.2-.4.6c0 .5-.4.8-1.4 1.2-1.6.5-3 1.6-3 2.5 0 .3-.2.6-.5.7s-1 .1-1.7.2l-1.7.2c-.3 0-.5.2-.5.4s-.2.3-.4.3-.3-.2-.1-.5c.2-.3.1-.4-.1-.2-.2.2-.4.5-.4.6-.4 2.2-.7 3-1.6 3-.5 0-1 .2-1.2.4s-.1.4.2.4.4.2.4.4-.2.3-.4.2-.5.1-.7.4 0 .8.2 1c.4.2.4.4.1.6-.6.4-.6 1.8 0 1.8.5 0 .1 5-.5 5-.2.1-.4 1.2-.4 2.5s-.2 2.5-.4 2.6c-.3.2-.4-1.6-.5-5-.1-4.4-.1-3.7-.4 4.2-.3 9.3-.3 9.6.5 10.4.8.8.8 1.3.7 8.2l-.1 7.4-.2-6c-.3-8.8-1-5-.7 4.7.1 7.4.4 9.2 1 8 .2-.3 1-.6 1.6-.8 1-.2 1.4-.6 2.3-2.8.7-1.7 1.2-2.5 1.7-2.5.7 0 1.6-1.5 1.6-2.8 0-.4.2-1 .4-1 .8-.5 2.8-4 2.8-4.8 0-.5.4-1.2 1-1.6.6-.4 1-1.2 1.2-2 1-5 5-3.6 7.6 2.4.6 1.3 1.4 2.8 1.8 3.2s1 1.4 1.2 2.2 1 2 1.4 2.6 1.2 2 1.6 3 1 2 1.3 2.4 1 1.8 1.7 3.2a50 50 0 0 0 2.1 4.4l2 3.6c.6 1 1.5 2.8 2 4a16 16 0 0 0 2 3.2c.5.6 1 1.6 1.4 2.3s1 2 1.7 3 1.4 2.6 1.5 3.5l.3 1.7 3 .1c3.4.1 4-.1 4.4-2 .2-1 .5-1.2 1-1.2 2.2-.1 2.8-.3 3-.8.3-.5.4-.5.4 0s.1.5.7 0c.4-.4.5-.6.2-.7-.7-.2 1.5-2 2.4-2 .5 0 1-.4 1.3-1.2.4-1 .7-1.2 1.4-1 .5.1 1 0 1-.2s.2-.3.4-.1.8-.1 1.4-.4 1-.6 1-.4.4-.1.8-.6c.6-.6.7-1 .4-1.4-.3-.4-.3-.6.4-.8.5-.1.7-.4.6-.5s0-.6.4-1 .4-1 .2-1a349 349 0 0 1 0-34.5c.3-.3.8-.6 1.2-.6.4 0 1.3-.8 2-1.8.7-1 1.4-1.8 1.6-1.8s.7-1 1.2-2.3 1.3-2.7 1.8-3.3 1.2-2 1.6-3 1.2-2.4 1.8-3 1.5-2 2-3c.6-1.4 1-2 2-2.3 1-.4 1.5-1.4.7-2.2-.1-.1-.1-.6.1-1 .6-1-1.6-3-3.4-3-1.8 0-3-.3-2.8-.7.1-.6-.7-1.4-1-1-.2.1-.4.4-.3.7 0 .3.1.3.4-.1.2-.3.4-.4.6-.1.3.5-.4 1-1 .7-.2-.1-.4-.6-.4-1 0-1-.8-1.6-2-1.7-.6 0-1-.2-1-.4 0-.5-1-1.5-1.6-1.5-.2 0-.6-.3-.8-.6s-.5-.6-.6-.6c-2 .3-3.5 0-3.5-.7 0-1-1.4-2.2-3-2.3-1.3-.1-2.7-1.3-2.7-2.5 0-.4-.1-.4-.2-.1-.1.3-.5.3-1.4-.1-.6-.3-1.3-.5-1.6-.4s-.6-.1-.8-.5-.4-.5-.4-.2c0 .5-.7.5-1.8-.1-.5-.3-.7-.7-.5-1 .2-.4.1-.6-.3-.4-.3.1-.7 0-.8-.2s-.7-.4-1.2-.4c-.5 0-1.7-.7-2.8-1.7l-1.8-1.7-4-.1c-2.2-.1-4-.1-4 0m-14 7.4c0 .3-.2.4-.5.2-.3-.2-.4-.1-.2.1.1.2 0 .5-.2.6-.3.1-.3.2-.1.2.6 0 1.5-1 1.2-1.4-.1-.1-.3 0-.3.2m-21.2 21.2c0 .5-.1.5-.4-.1-.3-.7-.3-.7-.4.2l-.1 1-.3-1c-.2-.6-.2-1-.1-1.3.3-.5 1.3.5 1.3 1.3M344.4 175a58 58 0 0 1-3.3 3l-1.8 1.5.1 5.6c.1 5.8.5 7 2 6.5.8-.3 3.2 1.2 3.6 2 .5 1 1.7 1.4 5 1.3 4-.1 4-.1 4-.4 0-.2.4-.2.8-.1s.8 0 .8-.2.4-.5.8-.6.7-.4.6-.6.1-.7.6-1 .8-.6.8-.4.2.1.5-.1.6-.3.8-.2c.6.6 1-2 1-6.5v-4.8l-1.7-2c-1-1-2-2-2.3-2s-1.2-.5-2-1c-3.2-2.4-8.2-2.5-10.4-.3m-146 46.5c-.1.2-.4.3-.6.2-.5-.3-2 1-1.8 1.4.1.2-.4.4-1 .4l-2 .1a28 28 0 0 1-1.9.2c-1 0-1.2.2-1 .5s.1.4-.4.2c-.4-.1-.7-.1-.7.1s-.1.3-.3.3c-.3-.1-.5.2-.5 1 0 .3.2.3.7-.1.6-.5.6-.5.2.1-.3.4-.8.7-1.2.6-2-.2-3.7.1-3.4.5.2.3.1.4-.2.2-.3-.2-.7 0-1 .3s-.5.6-.3.6.1.3-.2.6-.6.5-.8.4-.4 0-.5.2-.7.5-1.3.5c-1.4.2-3 1.4-2.7 2 .2.6-.2 1-1.8 1-1.3.1-4 2.2-2.7 2.2.3 0 .5-.2.3-.4-.1-.2 0-.3.2-.1.7.4.2.8-1 1-1 .1-2.6.4-2.8.6-.1.1-.8.3-1.3.3-.2 0-.4.2-.4.3.1.7-.6 2-1 2a125 125 0 0 0-2.1.2l-2 .2c-.3 0-.4.2-.4.5s-.1.4-.4.3-.5.1-.5.3l-.1 1c0 .3-.8.6-1.6.8-2.6.5-4.4 3-4.6 6.4 0 .2-.3.3-.6.3s-.6.2-.6.4-.2.3-.4.2-.5 0-.6.2-.1.4.2.4.4.2.4.4-.2.4-.4.3a599 599 0 0 0-.2 40.5c.1.2.1.6-.1.8-.2.3-.1.4.2.1.4-.2.5-.1.3.3-.2.5 0 .7.6.7.8 0 .8.1.1.3-.5.2-.6.4-.3.6.3.2.7.2 1 0s.4 0 .4.3l.2 1.8c.1 1.6.1 1.6 1.7 1.8.8.1 1.3.3 1.3.7 0 .5-.1.5-.6.1-.3-.3-.6-.3-.6-.1 0 .7 2.5 2.3 3.6 2.3.8 0 1 .2 1 .7-.1.4 0 .6.3.5.2-.1.4 0 .4.3 0 .5 1 1.2 2 1.2.2 0 .7.4 1.2.8s1.2.8 1.4 1c1 .2 1.7.5 1.7 1 0 .7 2 1 9 1 5 0 6.5.1 4.8.4a2 2 0 0 0-2.3 2.6c-.1 2.3.6 3.2 2.4 3.2.7 0 1 .2 1 .4-.5.8.2 2.3 1 2.4 2.2.1 3 .2 3 .6 0 .2.2.2.4.1s.6 0 .8.4.4.6.2.6 0 .4.4.8c.4.5 1 .7 1.5.6.4-.1.8 0 1 .1a41 41 0 0 0 7.2.3c7.4-.1 8.6-.4 8.6-2.3 0-.4.2-.8.5-.8s.7-.1 1-.2.7-.1 1-.1.8-.4 1-.8.5-.7.7-.7.4-.1.4-.4c-.1-.6.7-1 2.8-1 1.5-.1 2.3-1 2-2.6-.1-.4 1.3-.7 3.4-.6.3 0 .5-.1.5-.3s.4-.3 1-.3c.5 0 1-.2.8-.5-.1-.3.1-.5.3-.5s.4-.1.4-.3c-.1-.8.1-1 1-1.2.6 0 1.3-.1 1.7-.2.8-.2 2.7-2 2.5-2.5-.1-.2.1-.2.3-.1s.5.1.6-.1.5-.3 1-.3 1.3-.1 2-.4 1.3-.5 1.3-.3.4-.2.8-.6c1-1 1-1.5.1-.8-.4.3-.3.2.2-.3s1.6-1 2.3-1c.8-.2 1.4-.5 1.4-.8 0-1 1.2-2.5 1.8-2.5.3 0 .6-.2.6-.4s.2-.3.4-.2.4-.2.5-.7l.2-1.3a1544 1544 0 0 0 .1-23.3l.4-22.7c.2.1.3 1 .2 2 0 1 .1 1.8.4 1.8.2 0 .2.2-.1.4-.5.3-.5.5.2 1 .4.4.5.5.2.4s-.3 0 .2.4c.7.6.7.6 0 .6s-.7 0 0 .8c.4.4 1 .7 1.5.6s.7 0 .6.2.4.5 1.2.7c1 .3 1.4.3 1.4 0 0-.2.2-.3.4-.1s.3.4.2.6.1.4.6.4c.7 0 1 .4 1 1.2 0 .1.7.2 1.6.2 1.8 0 3.3-1.3 2.3-2-.4-.2-.3-.3.1-.4l3-.4c.3 0 .8-.4 1.2-1 .6-.7.6-.7 0-.3-.6.4-.6.4-.5-.3.1-.4.4-.7.6-.6s.4 0 .4-.3c0-.4.1-.4.4.1.3.5.4.5.4-.1 0-.4.2-1 .5-1.2.6-.6.8-8.7.3-8.7-.2 0-.2-.3-.1-.6.3-.7-1-2-1.6-1.7-.3.1-.8 0-1-.4s-.7-.6-1-.6-.6-.3-.8-.7c-.2-.6-.2-.6.4-.1 1 .8 1 .2.2-.6-.7-.6-1-.7-1.2-.2-.3.4-.4.5-.4.1 0-1-7.6-.4-8.5.7-.4.5-.6 1-.5 1.2s-.4.4-1 .5c-1 .1-1.3.3-1.2 1 .1.5 0 .6-.4.4-.4-.2-.3-.1.1.4.3.4.4.6.1.5s-.6 0-.7.3 0 .6.3.6c.4 0 .4.1 0 .3-.3.2-.4.7-.3 1.2.1.6 0 1-.4 1-.4 0-.5-.3-.3-1 .2-.7.1-1-.2-.8-.3.2-.5 0-.5-.4 0-.5-.2-.6-.8-.5-1 .2-1.2-.1-1.5-1.6-.3-1.4-.2-1.4-2.2-1.6-1-.1-2-.4-2-.6-.3-.3-.2-.3.1-.2.3.2.5 0 .5-.3 0-.4-.2-.5-.7-.4-.5.2-.6.1-.4-.4.2-.4.1-.7-.4-.7-.4 0-.5.2-.4.5.1.3 0 .2-.3-.2s-1.2-.8-2-.8c-2-.2-2.5-.4-3-1-.6-.7-.6-1.2-.1-1.2.2 0 .3.2.1.5-.2.3-.1.4.2.2.7-.4 0-1-1.2-1-.5 0-1-.2-1.4-.3s-.7-.2-1-.2c-.8.1-1.4-.5-1.6-1.8-.1-1-.4-1-2-1.2-1-.1-1.8-.4-1.7-.7s-.2-.4-.6-.2c-.4.2-.6.1-.4-.2.1-.2 0-.7-.4-1-.5-.5-.7-.6-1-.1-.3.4-.3.3-.3-.2 0-.4-.3-.7-.7-.7-1.4.1-2.5 0-2.4-.3.2-.3-2.5-3.2-2.8-3-.6.4-3.3 0-3.3-.5 0-.8-1-1.8-1.4-1.5-.1.1-.4 0-.6-.2s-1.2-.6-2.4-.7c-2-.2-3.4-.6-3.2-1.2.2-.5-1.5-1.5-2-1m2.6 14c.5.1 1.2.5 1.5 1 .8 1.6 1.6 2 4.7 2.2 1 .1 2 1 1.7 1.8-.3.5.8 1 3.2 1 2.8.3 3 .3 2.7 1.4-.2 1.2.5 1.8 2.4 2 .8.1 1.4.2 1.3.4s0 .3.2.3.3.2.2.4 0 .7.2 1c.3.4.6.5.8.2s.5-.2 1 .2c.4.4 1 .6 1.4.5 1-.2 3 .4 3 1 0 .2-.2.3-.5.1-.3-.2-.3 0 .1.5 1 1.2 1.3 1.4 3 1.4 1 0 1.8.2 2 .3.4.3.7 25 .5 39.3 0 1.4 0 1.5-2 1.7-2.8.3-5.8 1.5-3.8 1.5.3 0 .2.3-.2.8s-1.2.8-2 .8c-.7 0-1.3.1-1.3.3s-.5.3-1 .3c-1 0-1.6.7-2.4 2.5 0 .1-.7.2-1.6.3s-1.8.5-2 1c-.4.5-.5.6-.5.1 0-.6-1.6 1-1.6 1.6 0 .2-.2.3-.4.1-1.3-.8-3.2 1-3 2.7 0 .2-.2.3-.5.3-2.3.2-2.8.3-3 .7-.3.4-.4.4-.6 0-.2-.4-.4-.3-.6.4-.2.5-.6 1-1 1-.5 0-.6.1-.2.6s.4.6-.3.7c-.4 0-1 .1-1.5.2-4.4.7-9.8-.7-8.8-2.3.4-.6-.8-1-3.2-1l-2.7-.1c-.6-.1.6-1.2 1.3-1.2 1.4 0 2-3.2 2-12.4 0-3.6.2-4.7.4-3.8.2 1 .6 1.2 1.3 1.3 1 .1 2 1.2 1.8 1.7-.2.5 1.2 1.4 2 1.5 2 .1 3.3.7 3.6 1.5.3.8.3.7.4-.4 0-.7.2-1 .3-.8.5.7 2.8 1.8 3 1.4.2-.2.1 0-.2.4-.5.6-.4.7.3.7.4 0 1-.2 1-.5.2-.4.3-.4.5 0 .1.3.5.5.8.5.5 0 .5-.1.1-.7-.5-.6-.5-.6.1-.2.4.3 1 .4 1.3.3.4-.1.5-.1.4.2-.1.2 0 .4.4.4.4 0 .5-.2.4-.4-.2-.3 0-.3.6 0 1 .6 3 .6 3.5 0 .2-.3.4-.3.8.1.5.4.7.3 1.2-.3.5-.7.6-.7.6-.1 0 .4.3.7.6.7.5 0 .8-.5.6-1.3 0-.2.1-.2.4-.1s.3.4.2.6-.1.4.1.4c.7 0 1-.5.5-1-.3-.4-.2-.5.3-.4l1 .2c.2 0 .1.2-.2.4s-.4.4-.2.4c.7 0 1.3-.8 1-1.5-.1-.3-.1-.5.1-.5.4.1 3-.4 4.3-.7.4-.1.6-.3.5-.4s.1-.6.4-1c.6-.7.6-.7-.1-.5-.7.2-.7.2-.1-.2.4-.2 1-.3 1-.2.8.5 1.4-.8 1.5-3.2.1-1.5.4-2.7.8-3.2.6-.7.6-.7 0-.5-.5.2-.6 0-.6-1 0-.6.1-1 .3-1s.2.5.1.8c-.1.4 0 .6.5.6.6 0 .6-.1.2-.3-.3-.2-.5-.5-.5-.6.1-1 0-1.5-.5-1.2-.3.1-.2 0 .3-.4s1-.6 1-.6.2-.2.1-.4c-.2-.3-.4-.3-.8.1-.5.4-.5.3-.3-.2.2-.4.1-.6-.1-.5-.2.1-.4-.4-.4-1.2-.1-3-.3-4.8-.6-4.6-.2.1-.4-.1-.5-.5-.2-.5-.5-.6-1.2-.4-.5.1-1 .1-1-.1s.5-.5 1-.6 1-.4.8-.6-.1-.4.2-.4c.8 0 1.3-2.8 1.2-6.4-.1-2-.3-3.6-.5-3.6s-.3-.1-.1-.3 0-.8-.4-1.4-.7-1-.8-1-.5-.2-1-.6-1-1-1.7-1-1-.2-1-.4-.3-.5-.6-.7c-.4-.3-.4-.3.1-.2.3.1.6.4.5.6s.2.4.5.4c.4 0 .2-.4-.5-1.2-.6-.6-1.2-1-1.2-.8-.1.2-.6.2-1.2-.2-1.8-1-23-.5-23 .4 0 .2-.4.7-.8 1-1 .6-1 .4-.1-.5.5-.5.5-.6.1-.5-.3.1-.8.6-1 1s-1 1-1.6 1.5-1 .6-.8.6 0 .4-.4.8-1 .7-1.2.5c-.3-.2-.3-.1 0 .3.4.4.3.8-.1 1.4-.5.7-.6.7-.6-.2-.2-5.2-.2-5.3-1-6-1.3-1-7.2-.8-9.5.4-1 .5-1.4.8-1 .8s.4.3.2.6-.4.5-.6.4-.3 9-.4 20v20.7c0 .3-.8.4-2.3.3-2-.1-2.8-.5-2.8-1.4 0-.7-2.3-1.8-3.6-1.8-1 0-1.3-.1-1.3-1 0-.6-.2-1-.6-1-.3 0-.6-.2-.6-.4s.2-.3.5-.1c.3.2.4.1.2-.2-.2-.3-.4-.4-.6-.3-.6.4-1.4-.6-1.5-2-.1-1.3 0-1.4.8-1.3l1 .1-.5-28.2c-.6 0-.7-.3-.7-1.8 0-1 .2-1.7.3-1.6s.3-.1.3-.4.2-.6.4-.6.3.2.2.4-.1.5.1.6.5-.2.6-.7.1-1-.1-1c-.6-.2 0-1.3.8-1.3.4 0 .8-.2 1-.4s.6-.3 1-.2 1 0 1-.2.4-.3.6-.2.3 0 .3-.3.2-.5.6-.5.8-.3 1-.7.5-.8.7-.8c2-.1 2.7-.7 2.7-2 0-1 .4-1 3-1.2 2.2-.2 3-.7 3.5-2.2.2-.5.6-1 1.2-1 1.2 0 2.3-1 2.3-2 0-.5.2-1 .5-1 2.4-.1 4.5-.5 4.6-.8.1-.2.3-.3.5-.1s.3 0 .2-.3c-.2-.6 1.4-2 2.7-2 .5-.1 1-.2 1-.3.1-.1 4 0 5.4.2M165.3 256c0 .8.1 1 .2.7s.1-1 0-1.4-.2-.1-.2.7m46.8 7.8c2.3 0 3.3 1 2.5 2.2-.1.2.1.6.5.8 1 .6-.3.6-2.2.1-.8-.2-1.2-.2-1 0 .3.4-.6.5-1.6.1-.3-.1-.5-.4-.4-.6s-.1-.4-.4-.4-.5.2-.4.4c.4.6-1 1-1.5.4-.4-.4-.4-.4 0-.2.3.1.6.1.7-.1.3-.4-1.3-2-1.6-1.5-.1.1-.6.1-1-.2-.5-.3-.7-.3-.7 0 0 .2-.2.3-.5.1-.3-.2-1-.3-1.5-.3s-1-.2-1-.5c-.1-.3.2-.4 1-.3.7.1 1.2 0 1.2-.2s1.3-.3 3-.1l5.2.3m-22.2 7.5c.2 1.5.1 1.5 1.5 1.6 1.7.1 2.3 1 .6 1-1 0-1.2.1-.7.4.5.3.4.4-.3.4-.5 0-.8.2-.7.4s0 .7-.4 1c-.6.6-.6.3-.6-3 0-3.5.4-4.6.7-2m12 5.8c-.2.2-.2.6-.1.8s-.1.1-.7-.2c-.7-.4-1-.4-.7 0 .2.3 0 .4-.7.2-.5-.1-.8-.1-.5.1.6.5.7 1.6 0 1.6-.3 0-.5-.1-.4-.3s-.2-.8-.6-1.6l-.8-1.3 2.4.1c1.7.1 2.3.2 2 .6m1.4.4c.3.1.6.6.6 1s.3.8.6.8.6-.3.6-.6c0-.4.2-.5.6-.4.3.1.5.4.4.6s.3.2 1 0c.7-.2 1-.2 1 0-.1.2.3.4 1 .4a62 62 0 0 1 2.9.2l2.6.2c.7 0 .7.1 0 .8-.4.4-1 .7-1 .6s-1.2 0-2.4.3c-1.2.3-2 .6-1.6.8.3.2.6.2.7.1s.3.1.3.4-.3.6-.6.6c-1 0-1.8-.6-1.5-1 .1-.2-.1-.4-.5-.4-.6 0-.7.1-.3.6s.4.5-.2.3c-.4-.1-.7-.1-.7 0s-.5.3-1 .4l-1 .1 1.2-.8c1-.7 1-.8.5-1-1-.3-2 .1-1.8.7.1.3-.2.5-.5.6-.4.1-.4 0-.2-.2.7-.6.6-1.7-.2-1.7-.4 0-.8.2-.8.4s.2.3.4.2.4-.1.4.2-.3.5-.6.7c-.7.3-1.8-.5-1.8-1.2 0-.2.3-.1.6.3s.6.6.6.4c0-.7-1.3-1.8-1.8-1.6-.4.2-.5 0-.2-.7.3-.8.6-1 1.8-1 .8 0 1.4-.1 1.4-.3s-.3-.3-.6-.1c-.4.1-.6 0-.6-.4 0-.7.1-.7 1-.3m-38.8 10c0 1 1 2 1 1 0-.3-.2-.3-.4-.2s-.4.1-.4-.2.3-.4.6-.4.6-.2.6-.5-.1-.3-.3-.2-.5.1-.7-.1c-.3-.3-.4-.1-.4.7m34.8 6.2c.1.6 1.4.8 1.4.3 0-.2-.3-.3-.6-.2s-.7 0-.8-.2-.2-.2-.1.1" fill="#69a35b"/><path d="M143 136.7l-.8.6.8-.3c.4-.2 1-.3 1.3-.3s.4-.2.3-.4c-.3-.5-.6-.4-1.6.3m12.8 1.2c1 1 2.3 1.8 2.8 1.8.5 0 1 .2 1.2.4s.5.3.8.2c.3-.1.4.1.3.5-.1.4.1.8.5 1 1.2.5 1.7.5 1.7.1 0-.2.3-.1.6.3.6.7.6.7.2-.1-.2-.5-.3-1-.2-1.3s0-.4-.3-.3-.5-.1-.5-.3-.3-.4-.8-.5c-3.5-.3-4.7-.7-4.5-1.4.1-.4 0-.8-.2-1s-.3-.4-.1-.6.1-.4-.1-.3-.4 0-.5 0-.8-.1-1.6-.2l-1.4-.1 2 1.8m-17 1.6c-.1.1-.7.3-1.2.3s-1 .3-.8.5-.1.5-.3.5-.3.4-.3.8c.1 1 .6 1 1 0 .1-.4.4-.7.7-.5.2.2.3.1.2-.2-.1-.2.1-.5.5-.7s.8-.4.8-.6c0-.4-.2-.5-.5-.1m-7.5 3.5c0 .2-.2.2-.5 0-.3-.2-.4-.1-.2.2.2.3.1.5 0 .5s-.3.4-.3 1c0 .7.2 1 .8.7 1-.3 1.8-1 1.8-2 0-.4.2-.5.4-.4s.4.1.4-.1-.5-.3-1.2-.3-1.2.2-1.2.4m34.4-.2c.3.1.8.4 1 .6.4.3.5.2.5-.3 0-.4-.3-.6-1-.6-.6 0-.8.1-.5.3m2.4.1c-.7.4.4 2.5 1.4 2.7.7.1.7-2 0-2.6-.2-.2-.2 0 0 .3.2.4.1.4-.3-.1s-.7-.6-1-.3m-36 1.4c-.3.3-.7.6-1 .6-.3 0-.3-.1.1-.2.3-.1.4-.4.2-.6-.2-.3-.1-.3.2-.1.3.2.5.1.5-.2s.1-.4.3-.2 0 .5-.2 1m-5.2 2.3c0 .8 0 .8.8.1.4-.4.8-.8.8-1s-.4-.1-.8-.1c-.6 0-.8.3-.8 1m45.5 0c.5.4 1 1.2 1 1.7 0 .6.1.7.2.3.3-1-.6-2.8-1.3-2.8-.6 0-.6.1.2.8m-51.4 3.2c-.5 1-.4 2 .1 1.8.3-.1.5-.5.4-1s.2-.6.4-.6.5-.1.5-.3.1-.3.3-.2.7 0 1-.2c.6-.2.3-.3-1-.3-1 0-1.8.3-2 .7m56.2-.4c0 .2.4.5.8.7s.8.4.8.6.2.4.4.4.3-.4.3-1c-.1-1-2.3-1.6-2.3-.7m-59.7 3c-.3.3-.8.6-1 .6-.8.2-1.6 1.3-1.6 2 0 .4.1.4.4-.2.2-.4.7-1 1-1.4.7-.6.7-.5 0 .2-1 1-1 1.7.1 1.5.4-.1.8-.5.8-.8 0-.7 1-2 2-2.3.4-.2.3-.2-.3-.3-.5 0-1 .2-1.4.5m63.5-.2c1.2.3 1.8 1 1.8 1.8 0 .4.2.8.4 1 .6.3 1.3-.2 1-.7-.2-.3-.4-.2-.6.1-.2.4-.3.4-.4.1 0-.7.7-1 1-.4.2.3.3.7.3 1s.3.4.7.5 1 .2 1.5.4 1 .1 1-.2c.2-.2-.2-.4-.8-.4-.7 0-1-.2-1-.6 0-.3-.2-.5-.4-.4-.3.2-.4 0-.3-.5.1-.5-.1-.7-.6-.6-.4.1-.6 0-.5-.2s-.2-.4-.7-.4a25 25 0 0 1-2.1-.3c-.7-.1-.8-.1-.4 0m-69.6 3.3c-.1.2-.5.3-1 .1-.5-.2-.6-.1-.3.3.2.4.2.5-.3.3-.8-.3-1.5.4-1.2 1.2.1.3-.1 1-.4 1.3s-.5.8-.4 1 0 .2-.4 0-.8 0-1 .2c-.2.3-.1.4.2.2.4-.2.4-.1 0 .5-.2.5-.7.8-1 .8s-.3.1-.2.3.1.5-.2.8-.3.8-.2 1 .1.6-.2.6c-.4 0-.3 41.6.1 44 .1.5.3.8.5.6s.3.1.1.4c-.3.7.4 1.3 1.4 1.2.4-.1 1 .2 1 .5s.7.5 1 .4c.6-.2 2 1.3 1.7 1.7-.5.5 1 1.3 2 1.3 1 0 1.7.6 1.8 1.7.1.4.6 1 1.3 1a39 39 0 0 0 3.6.5c.3 0 .6.6.8 1.3.3 1 .6 1.4 2 1.6 1 .2 1.8.6 2 1.3.3.6.6 1 1 .7.3-.2.3-.1-.1.4-.7 1-.3 1 .5 0 .6-.6.6-.6.6 0 0 .4.5.7 1.6 1 1 .1 1.6.5 1.6.8 0 .3.2.6.4.7s.3-.2.1-.6l-.2-1 1 1c.5.5 1 .8 1.4.7s.6.1.7.5c.1.5.6.8 1.7 1 1.3.1 1.5.3 1.5 1 0 .5.2 1 .5 1 .3 0 .5.2.3.5-.2.3-.1.4.4.2.4-.1.7-.1.7.1s.8.4 2 .4c2.2.1 2 .1 2.2 1.3.1 1.4.5 1.8 2.2 2 .8 0 1.6.2 1.6.5s.3.3.6.1c.2-.2.3-.1.2.2-.5.7 1.5 1.7 3.4 1.6 1 0 2 .1 2.4.3.3.2.4.2.2-.1-.3-.5.7-1.4 1-1 .1.1.1-.1 0-.6-.2-.7-.6-.8-2-1-1.8-.1-2-.1-2-1.8-.2-1-.8-2.5-1.5-3.5s-1.4-2.4-1.7-3-.8-1.7-1.4-2.3a16 16 0 0 1-2-3.2l-2-4-2-3.6a50 50 0 0 1-2.1-4.4c-.6-1.4-1.4-2.8-1.7-3.2s-1-1.5-1.3-2.4-1-2.4-1.6-3-1-1.8-1.4-2.6-.8-1.7-1.2-2.2-1.2-2-1.8-3.2c-2.7-6-6.6-7.4-7.6-2.4-.2.8-.7 1.6-1.2 2-.6.4-1 1-1 1.6 0 1-2 4.3-2.8 4.8-.2.1-.4.6-.4 1 0 1.3-1 2.8-1.6 2.8-.5 0-1 .8-1.7 2.5-1 2.2-1.2 2.5-2.3 2.8-.7.1-1.4.5-1.6.8-.7 1.2-1-.5-1-8-.2-9.8.4-13.5.7-4.7l.2 6 .1-7.4c.1-7 0-7.4-.7-8.2-.8-.8-.8-1-.5-10.4l.4-4.2c0 3.4.2 5.2.5 5 .2-.1.4-1.3.4-2.6s.2-2.4.4-2.5c.5-.2 1-5 .5-5-.6 0-.6-1.5 0-1.8.3-.2.3-.4-.1-.6-.3-.2-.4-.6-.2-1s.4-.6.7-.4.4.1.4-.2-.2-.4-.4-.4-.3-.2-.2-.4.7-.4 1.2-.4c1 0 1-.2 1.7-3.3.2-.8-.1-1-.4-.3m.8.2c-.1.3-.1.6.2.6s.4-.2.4-.4.1-.3.3-.2.6 0 1-.2c.4-.3.3-.4-.5-.4-.6 0-1.2.3-1.3.6m77.8 1c1 1 1 1.2.8 1.8-.2.4-.3 1-.1 1 .8.8.4 1.8-.7 2.2-1 .3-1.4 1-2 2.3-.5 1-1.3 2.4-2 3s-1.4 2-1.8 3-1 2.4-1.6 3-1.3 2-1.8 3.3-1 2.3-1.2 2.3-1 .8-1.6 1.8c-.7 1-1.6 1.8-2 1.8-.4 0-1 .3-1.2.6a349 349 0 0 0 0 34.5c.2.1.1.6-.2 1s-.5 1-.4 1-.2.4-.6.5c-.7.2-.8.4-.4.8.5.6-.5 2-1.6 2-1.3.3-1.3 1 0 .7 2.4-.3 5.5-2.3 4.8-3-.1-.1.4-.2 1.2-.3l1.7-.1c.1 0 .2-.5.2-1-.2-1.5.2-1.8 2.4-2l2-.3c.1 0 .3-.1.6-.1s.4-.4.4-.8.2-.8.5-1 .5-.4.4-.5.5-.4 1.4-.6 1.6-.4 1.6-.7.1-.8.1-1.3c0-.7.3-1 1.3-1 .8-.1 1.6-.6 2.4-1.7.7-1 1.5-1.7 1.8-1.8a482 482 0 0 0 .3-43.8c-.2 0-.2-.4-.1-.8.1-.5-.1-.8-.5-.8H192.8c-.4 0-.6-.7-.7-2.2-.1-1.2-.3-2.4-.5-2.7s-.3-.7-.2-1c.2-.3 0-.3-.4-.1-.4.1-.6.1-.5-.1s-.2-.4-.7-.4c-1 0-1 0 .3 1m-80.5 7c-.1.2 0 .8.1 1.3l.3 1 .1-1c.1-1 .1-1 .4-.2.3.6.3.7.4.1 0-.7-1-1.8-1.3-1.3m234.3 11.8c-1.5 1.6-1.3 1.8.4.4.7-.6 1.7-2 1.4-2a16 16 0 0 0-1.7 1.7m8.4-1.3c.6.2 1.8 1 2.7 1.4s1.8 1 2 1c.7-.2-3-2.3-4.5-2.5-1.3-.2-1.3-.2-.2.2m-12 3.8c-.5.5-1 1.2-1 1.4 0 .5 2.2-1.2 2.6-2 .4-.8-.5-.6-1.6.5m18.2-.3c.5 1 2.5 2.7 2.5 2.2 0-.6-1.2-2-2-2.5-.7-.4-.8-.3-.4.3m2 13.3c-.1.5-.4.8-.6.7s-.5-.1-.7.2c-.4.6.8.5 1.4-.2.3-.3.4-.8.3-1s-.3-.1-.4.4m-2.8 1.6c-.4.4-.5 1-.4 1s-.1.4-.6.5c-1 .3-1 .8-.3 1 .3.1.6 0 .6-.2s.2-.3.5-.1c.3.2.4.1.2-.2-.2-.3-.1-.5.2-.5.3 0 .4-.3.2-.7-.1-.4 0-1 .2-1.2.7-.8.2-.7-.6.2m-13.7 1.2c1.4 1.4 3.4 2.6 2.8 1.6-.1-.2-.5-.4-.8-.4s-.6-.2-.6-.5c0-.6-1-1.6-2.2-2-.5-.2-.3.2.7 1.3m4.4 2c1 .6 3 .7 3.2.1.2-.4-.2-.5-1.8-.5-1.4 0-1.8.2-1.4.4M196.6 221c.1.1-.1.5-.4 1-.5.6-.5.7 0 .7.3 0 .5-.2.4-.3s0-.4.2-.4c1-.1 1.2-.2 1.4-.4.4-.4 1.4.1 1.2.5-.1.2 0 .3.3.3s.5.1.4.4c-.1.7.6.6 1-.1.2-.4.1-.5-.2-.3-.3.2-.4.1-.2-.4.2-.4.1-.6-.1-.4-.2.1-.4.1-.4-.1s-.8-.3-1.8-.3-1.7.1-1.6.2m-27.4 2.4c0 .2-.4.3-1 .2-.7-.1-1 .1-1.4 1-.3.8-.8 1.3-1.4 1.4-.5.1-.2.2.8.2s1.7-.2 1.7-.4.3-.3.7-.2c.5.1.7-.2.8-1.2.1-.7.1-1.3-.1-1.3s-.2.2-.2.3m-36.6.5c.1.1.1.3-.1.5s-.6 0-.8-.3c-.5-.6.4-.7 1-.1m73.5-.2c-.7.2-.7 1 0 .8.6-.2 1.5.6 1.5 1.5 0 .3.3.6.6.6.5 0 .5-.1 0-1-.7-1.4-1.5-2-2-1.8m-17.4.3c-.1.1-.6.3-1 .3-1.3.2-1.4 2-.1 2 .5 0 1-.3 1.4-.6.4-.5.4-.5-.2-.1-.5.4-.7.4-.7.1 0-1 .1-1 .4-1 .2.1.4-.1.4-.3s.3-.3.7-.1c.4.2.6.1.4-.2-.3-.5-.8-.6-1-.3m-6.3 3.2c-.6.7-1.4.7-1 .1.2-.3.1-.3-.4 0-.7.6-1 1-.3.7.6-.4.5.5-.2 1.2-.6.6-.6.6 0 .6.3 0 .6-.2.6-.4s.2-.3.4-.2.6 0 .8-.4.3-.6.1-.6-.1-.2.2-.4.5-.5.4-.8c-.1-.2-.4-.2-.7.2m29-.5c0 .1.5.6 1 1.2s1 1 1.2 1c.4 0 .1-1-.6-1.6s-1.6-1-1.6-.6m-34.2 3.6c-.8.8-.8 1-.1.7.3-.1.7-.5.8-.8.3-.7.1-.7-.7.1m40.5-.4c-.1.1 0 .5.3.8s.5.7.4 1 .2.5.6.8c.5.3.8.3.8.1 0-.2-.2-.4-.3-.4s-.3-.5-.2-1c.1-.6-.1-1-.3-.7-.2.1-.5 0-.7-.2s-.4-.3-.5-.2m-44.6 3.6c.4.4.3.5-.2.3-.4-.1-.8.1-1.2.6-.3.5-.7.7-1 .5s-.2-.1-.1.1c.3.5 2 .5 2.5.1.1-.1 0-.4-.2-.5-.3-.2-.4-.1-.2.1.1.2 0 .4-.3.4-.4 0-.5-.1-.2-.5.2-.3.7-.4 1-.3.4.1.5-.1.5-.6 0-.4-.3-.8-.6-.8-.4 0-.4.1-.1.5m22 1.8c-.4.2-.1.3.8.4.7 0 1.3-.1 1.3-.1 0-.4-1.6-.5-2-.2m-2.2.8c-2 1.5-2.3 2.3-1 2.3.6 0 .6-.1.1-.4-.3-.2-.4-.4-.1-.4.3 0 .8-.1 1.2-.3.5-.2.6-.1.4.3-.2.3.1.2.6-.3 1.5-1.4.6-2.5-1-1.3m33.3.3c.4.4.8.6 1 .4.2-.5 1.2-.4 1.4 0 .1.2 0 .5-.2.7-.3.2-.4.1-.2-.2.2-.3.1-.5-.1-.5-.6 0-.5.5.1 1.2 1 1 1.5 1 1.3-.5-.1-1.3-.3-1.4-2.8-1.8-1.2-.2-1.2-.2-.4.6m-24.4 0c-.2.4-.2.6.1.7.3.1.5.4.5.7s.2.5.5.5 1 .1 2 .3 1.3.2 1 0-.8-.3-1.4-.4-1.3-.4-1.5-.6c-.3-.3-.1-.3.4-.1.6.2.7.2.2-.2-.3-.2-.7-.3-1-.2s-.4-.1-.4-.5c-.1-.6-.2-.6-.5-.1m-41 3.8c-.8.7-1.5 1.4-1.5 1.6 0 .5 1.8.1 2-.4l.1-1c0-.2.2-.3.4-.2s.6 0 .8-.3c1-1-.2-1-1.7.3m72.3-1c-.1.2 0 .6.2 1 .4.4.4.3.2 0-.2-.3 0-.5.3-.5.4 0 .5.2.4.7-.2.5-.1.6.4.4.4-.2.7-.1.7.4 0 .4-.2.5-.5.3-.4-.2-.4-.2 0 .2.8.8 1.4.1 1-1-.3-.5-.4-1-.4-1s-.1-.1-.2-.1-.6-.2-1-.4c-.4-.2-.8-.2-1 .1m18.6-.3c-.1.1-1.3.2-2.7.3s-2.5.3-2.5.5-.2.2-.4.1c-.2-.1-.3 0-.1.4.2.5.1.6-.2.4-.3-.2-1 .2-1.5.7-.6.6-1 1-1.3 1s-.3.2-.3.5l-.1 1.2c0 .5-.4.7-1.7.7-1 0-1.5.2-1.4.4s.6.3 1 .2c.5-.1.8 0 .8.4 0 .4.3.5 1 .4.6-.1 1-.3.6-.4s-.4-.4-.3-.7.4-.5.6-.3.3.1.3-.1c-.1-1 .1-1.4.5-1 .3.2.4.1.2-.2-.2-.3-.5-.3-.7-.2-.3.2-.3.1-.1-.2.2-.3.8-.5 1.5-.5s1-.1 1-.3c-.4-.4.5-1.8 1-1.5.3.2.3.1.2-.2-.2-.3-.2-.5-.2-.5 1.6-.4 8-.3 8 .1 0 .4.1.4.4-.1.3-.5.5-.5 1.2.2 1 .8.8 1.4-.2.6-.5-.4-.6-.4-.4.1.1.4.4.7.7.7s.7.3 1 .6c.4.4.8.5 1.2.2.5-.3.5-.4-.1-.4-.4 0-1-.5-1.3-1.2-.8-1.5-5-2.8-6-2m-43.2 2c0 .2.5.3 1 .4 1 .1 1 0 .3-.3-1-.5-1.4-.5-1.4-.1m-51.8 1.3c-.4.2-1 .2-1.2.1s-.3-.1-.1.1.1.6-.1 1c-.6 1.2.4 1.4 1.3.3.4-.5 1-1 1.2-1s.3-.1.1-.3.1-.5.5-.6c.6-.2.6-.2-.1-.2-.4 0-1.2.1-1.6.3m25.8.5c0 .5-.8 1.4-1.6 1.7-.3.1-.1.2.6.1 1-.1 2.2-2.3 1.2-2.3-.1 0-.2.2-.2.4m34.8 2.2c0 .6 1.4 3 1.7 2.7.2-.1.2-.5-.1-.8s-.3-.7-.2-1 .1-.4-.2-.4-.4-.2-.2-.3-.1-.3-.4-.3-.6.1-.6.1m-41 .8c0 .5-.3 1.2-.7 1.5s-.5.6-.2.6c.7 0 1.3-1 1.2-2-.2-1-.2-1-.2-.1m43.6 1.4c.2.6 1 1 1 .4 0-.2-.3-.5-.6-.6-.4-.2-.6-.1-.5.2m-48 1c-.2.2-.1.4.2.4s.4.2.4.4-.2.3-.5.2-.8.1-1 .4-.7.5-1 .4-.2.1-.1.5c.2.6.3.6.7.1.3-.4.6-.5 1-.2.5.3.7.2.6-.1-.1-.3.1-.5.3-.5s.4-.4.4-1 0-.8-.1-.5c-.2.4-.3.4-.5.1-.2-.3-.4-.4-.6 0m51.8.1c0 .2.2.4.4.4.3 0 .3.2 0 .6-.4.4-.4.6 0 .6.3 0 .3.2.2.5-.2.3-.1.4.1.2.2-.1.5-.1.7.1s.5.4.7.4.1-.4-.4-.8-.8-1-.7-1.3-.1-.7-.4-.8-.6-.1-.6.1m-71.4 1.2c-.6 1-.6 1.3-.2 1.7s.4.3.3-.1c-.1-.3.1-.6.4-.5s.5-.1.5-.3-.2-.4-.4-.4-.3-.2-.2-.4.4-.3.6-.2.4 0 .4-.2c0-1-.7-.7-1.4.4m75 1.4c.4.1 1 .1 1.4 0s.1-.2-.7-.2-1 .1-.7.2m-61 .8c-.2.4-.1.6.2.5.6-.2 1-1 .4-1-.2 0-.5.3-.6.6m11.5-.1c-.6.3-.8 1-.8 2 0 1.3 0 1.3.5.6.4-.6.4-.8 0-1-.4-.2-.3-.3.1-.3.3 0 1-.3 1.4-.6.8-.6.8-.6 0-.3-.5.2-.7.1-.5-.2.4-.6.3-.6-.8 0m10-.1c.4.2 1 .7 1 1s.4.5.4.2c0-.6-1-1.7-1.7-1.7-.3 0-.2.2.2.4m30.3-.1c.3.1.8.4 1 .6.3.2.5.2.6-.2.1-.3-.2-.5-1-.6-.7 0-1 0-.6.2m-24.8.5c0 .1 0 .3 0 .5s-.1.3-.3.3-.3.3-.2.6c.3.8 1 .8 1 0 0-.3.2-.7.5-1 .3-.2.4-.1.2.4-.2.6-.1.6.5.2 1.2-.7 1-1.5-.4-1.4-.7 0-1.2.2-1.2.3m27.6-.1c0 .2 0 .4 0 .6s-.2.3-.5.3c-.4 0-.4.1 0 .3.3.2.5.5.5.7-.1.5 2 .5 2.2 0 .1-.2.1-.3-.1-.2-.4.2-2.2-1.5-2-1.8.1-.1.1-.2 0-.2s-.3.1-.3.3m-55.6 2c0 .3-.1.5-.3.4s-.3.6-.3 1.6c0 1.5.1 1.8.7 1.8.7 0 .8.5.7 14l-1 14c-2-.3-.5 3.6 1.7 4.5.7.3.7.2.1-.6-.5-.7-.5-1.4-.2-3 .6-3.5.2-31.4-.4-32-.3-.3-.4-.7-.2-1s.1-.3-.2-.3-.5.3-.5.6m94.6.4c-.2.8-.4 1-.6.5-.3-.4-.3-.4-.3 0 0 .3-.2.4-.4.3s-.4 0-.4.3-.1.8-.2 1c-.1.4.2.6.6.7.4 0 .7-.1.6-.3-.3-.4.8-1.3 1-1 .2.2.2 0 0-.4s-.1-.7.1-.7.4-.4.4-.8c.1-1.2-.6-1-1 .2m-17.3.1c.1.4.5.8 1 .8.8.1.8.1 0-.5-.4-.4-.5-.5-.2-.4.4.2.5.1.3-.2-.4-.7-1-.5-1 .2M152.2 272l.1 9V263a55 55 0 0 0-.1 8.9m13.3-15.3c-.1.4-.2.1-.2-.7s.1-1 .2-.7.1 1 0 1.4m24.5-.7c-.7.7-1 1.2-.8 1.2.3 0 .4.4.3 1-.2 1-.2 1 .2.3.3-.4.5-1 .4-1s.2-.5.6-1c1.6-1.7 1-2.3-.8-.7m34.6-.5c-.3.1-.5.4-.5.6s.2.3.4.1.6.2 1 .8c.5 1 1 1.4 1 .6 0-.2-.2-.4-.4-.4s-.3-.3-.2-.6c.3-.7-.5-1.4-1.2-1m18.2.8c-.2.4 2.2 1.7 3.2 1.7.4 0 .5.2.3.5-.2.3-.1.4.1.2s1 .2 1.6.8c1.2 1 5 1.8 5 1 0-.2-.4-.3-1-.2-.7.1-1-.1-1.5-.7-.3-.5-1-.8-1.3-.8s-.6-.2-.5-.4 0-.5-.2-.6-.4-.1-.4.1c0 .2-.5.2-1.4 0-.8-.2-1.3-.6-1.2-.7s-.1-.3-.5-.2-1-.1-1.4-.5-.8-.4-1-.2m11.2 2c.3.1.4.5.3.8s-.4.5-.5.4-.3 0-.2.3.2.5.4.6.2 0 .2 0 .1-.4.4-.8c.6-.7.3-1.5-.5-1.4-.4 0-.4.1 0 .2m-28 2.8c0 .2.4 1 .8 1.6.8 1.3.8 1.4.1 2-1 1-.5 1.3.6.2l1-1-.8-1.7c-.7-1.5-1.6-2.2-1.5-1.4m-22 2.5c0 .2 1.4.4 3 .4s3-.1 2.8-.2c-.4-.4-6-.5-6-.1m3.5 1c-.1.2 0 .6.3 1 .7.6.4 1.4-.3 1-.4-.2-.4-.1 0 .2.5.6 2 .2 1.5-.4-.3-.5.8-.5 2.2 0 .8.3.8.3-.4.2-.8-.1-1.2-.1-1 .1s1.6.3 3.2.4c3.5.1 3-.3-1.5-1.3-1.7-.4-3.3-.8-3.4-1-.2-.3-.3-.3-.5 0m6.7.3c-.4.4-.4.6.1.8.4.1.6 0 .6-.6 0-1 0-1-.7-.2m11.2 3.6c-.3.3-.4.6-.3.7s-.2.3-.8.5-1 .4-1 .6c0 .5.6.4 1.2-.1.4-.4.6-.4.7-.1a6 6 0 0 0 .8 1.2c.6.7.6.7.2-.1-.5-1-.4-1.8.2-2.2.3-.2.3-.4 0-.7-.3-.2-.6-.2-1 .1m-35.8 3c-.2.4 0 1 .5 1.4.8.7.7 1.6-.1 1-.3-.2-.3-.1-.1.2.2.3.1.5-.1.5s-.3.3-.2.6.4.6.6.6.3-.3.2-.6c-.2-.4 0-.6.7-.6.5 0 .7-.1.5-.3-.5-.4-.7-1.3-.2-1.3.2 0 .5.2.6.4s.5.4 1 .4c.5 0 .5-.1.1-.6-.3-.3-.6-.6-.7-.6-1.3.2-2-.2-2-1-.1-.7-.2-.8-.4-.2m37.3 3.3c0 .1.3.7.7 1.3s.7 1.8.8 3c.1 1.2 0 1.7-.2 1.3-.2-.3-.2-1-.1-1.3.2-.7.1-.7-.6-.3-.5.3-1 .6-1 .7s.2.1.4 0c.3-.2.5.3.4 1.3 0 .1.2.4.5.6.4.3.4.3-.2.3-.5 0-.7-.2-.5-.6.1-.3.1-.7-.1-.8s-.3.3-.3 1c0 1 .2 1 .6 1 .5-.2.5-.1-.1.6-.7.8-1 2-.3 2 1.4 0 2.4-4.7 1.7-7.5-.4-1.4-1.6-3.2-1.6-2.4m-.2 1.8c0 .4.2.7.4.6.2-.1.3.1.1.4-.2.4-.1.6.1.4.5-.3.5-.7-.1-1.5-.5-.7-.5-.7-.5.1m-28.2 1c.4.7.7 1.4.6 1.5s.1.3.4.3c.6 0 .6-1 0-1.6-.2-.2 0-.2.5-.1.7.2 1 .1.7-.2-.2-.4-.1-.4.7 0 .5.3.8.4.7.2s-.1-.5.1-.8c.4-.5-2-.6-2.7-.1-.3.2-.6.1-.7-.1s-.4-.4-.6-.4 0 .6.4 1.3m4 .1c0 .4.2.5.6.4.3-.1.6-.1.6.2 0 .2-.6.3-1.4.2-1.2-.2-1.5 0-1.8.7-.5 1.3-.2 1.5.6.4.4-.6.7-.7 1-.5.1.2.7.3 1 .2 1-.3 1.2-1.5.3-2-1-.3-1-.3-1 .3m2.8.8c0 .8 1 1 3.5 1 1.6 0 2-.1 1.7-.4-.3-.2-1-.3-1.6-.1-.6.2-1 .1-.7-.2.2-.3 0-.3-.5-.2-.4.1-1 0-1.6-.3-.7-.4-.8-.3-.8.1m9.2 1.4c0 .2-.6.3-1.4.1-1-.1-1.4-.1-1.4.2s-1.4.5-3.7.6c-3 .1-3.7.2-3.7.7 0 .3-.2.7-.4 1-.2.2-.2.3.2.2.3-.1.6-.4.5-.6-.1-.6 1-1 1.8-.7.6.2.5.4-.5 1l-1.2.8 1-.1c.6 0 1-.2 1-.4s.3-.2.7 0c.6.2.6.2.2-.3s-.3-.6.3-.6c.4 0 .6.2.5.4-.3.4.6 1 1.5 1 .3 0 .6-.3.6-.6s-.1-.5-.3-.4-.5 0-.7-.1c-.3-.2.3-.5 1.6-.8 1-.3 2.2-.4 2.4-.3s.6-.2 1-.6c.4-.5.5-.8.3-.8-.3 0-.5.2-.5.4m-13 1c0 .4.2 1 .5 1 .6.5 1.8.2 1.8-.4 0-.2-.2-.3-.4-.2s-.4.1-.4-.2.3-.4.6-.4.6-.2.6-.4c0-.7-2.6-.3-2.7.4m27.2 2.6c-.2.8-.3 1.3-.1 1 .4-.4 1-2.6.7-2.6-.1 0-.4.7-.6 1.5m-62.7 3.5c.1-.1.3-.1.3.2s-.3.5-.6.5-.6.2-.6.4.2.3.4.2.4 0 .4.2c0 1-1 .1-1-1 0-.7.1-1 .4-.7.3.2.6.3.7.1m24 1.5c.1.3.5.7 1 .7s1 .4 1.2.8.6.5.7.4c.4-.4-.7-1.5-1.6-1.6-.4-.1-1-.3-1-.5-.2-.2-.3-.2-.2.2m34 .8c-.5.4-.5.4.2.2.8-.2.8-.2 0 .6-.4.4-.6.8-.3.8.6 0 1.8-1.4 1.5-1.7-.4-.4-.6-.3-1.3.2m-31.2 2c0 .3.3.6.6.6.7 0 .6-.7-.1-1-.3-.1-.5.1-.5.4m-40.5.6c-.2 1 1 3.6 1.5 3 .2-.3.1-.5 0-.5s0-.2.5-.4c.8-.3.8-.3-.1-.4-.7 0-.8-.2-.6-.7.2-.4.1-.6-.2-.4-.3.2-.4.1-.2-.3.1-.3.1-.7-.2-.8s-.5.1-.6.5m69.3-.3c-1 .2-2 .4-2.3.4s-.4.3-.3.5c.2.5-.5 1.4-1 1.4-.2 0-.1-.2.2-.4s.4-.4.2-.4l-1-.2c-.5-.1-.6 0-.3.4.4.5.2 1-.5 1-.2 0-.3-.2-.1-.4s.1-.5-.1-.6-.3.1-.4.5c-.1.8 2 1.4 2.3.7.1-.2.5-.3 1-.2.8.3 1.5-.4 1.2-1.2-.2-.4-.1-.5.2-.3.3.2.5 0 .5-.3 0-.4.4-.6 1-.6.6 0 1.4-.2 1.7-.4.7-.5.4-.4-2 .1m-24.8.8c0 .6 1.5 2 2.2 2 .3 0 .6.2.6.4 0 .5 2 0 2.7-.7.3-.3.4-.5.2-.4-.3.2-2.7-1-3-1.5-.2-.2-.3.1-.3.8 0 1-.1 1-.4.4-.3-.8-2-1.6-2-1m-26 1.3c0 .8.2 1.3.6 1.3.4 0 .4-.1.1-.4-.5-.5-.5-1 0-1 .2 0 .4.1.3.3-.1.6.6 1.7 1 1.7 1 0 .6-1-.6-2-1.5-1.3-1.5-1.3-1.5.3m29.7 0c.3-.1.6 0 .6.2 0 .6-1.3.3-1.4-.3-.1-.3 0-.3.1-.1s.5.3.8.2m4.5.4c.5.6.5.7-.1.7-.3 0-.7-.2-.8-.5s-.3-.4-.5-.2c-.7.7 1 1 5 1 4.7 0 5.5-.2 5.5-1 0-.6-.1-.6-.5 0-.5.7-1.3 1-1 .3.3-.4-.8-.3-1.2.1s-2.5.3-3.4-.2c-.6-.3-.7-.3-.6 0 .2.3 0 .4-.4.4-.4 0-.5-.2-.4-.4.1-.2 0-.3-.4-.2-.3.1-1 0-1.3-.3-.6-.5-.6-.5-.1.2m13.2 1.7l-.1.5c0 .2-.2.5-.4.8s-.2.6-.1.7.5-.3.8-.8c.4-.6.5-1 .3-1.2-.2-.1-.4-.1-.4 0m1.3.1c0 .2.4.3.8.3s.8-.1.8-.3-.4-.3-.8-.3-.8.1-.8.3m22.4.5c0 .5-.2.7-.4.6s-.4-.1-.4.2-.3.4-.6.4-.7.2-.8.3c-.2.3.2.3 2 .1.4-.1.8-2.5.4-2.5-.1 0-.2.4-.2.8m-86.2 2.4c-.2.3-.1.4.1.2.4-.2 1 .8 1 1.4 0 .2.2.2.6 0 .4-.2.6-.1.4.2-.1.2.2.5.8.6l1 .2-1.2-1c-.7-.6-1.2-1.2-1.2-1.4s.3-.1.6.2c.5.4.6.4.6-.1 0-.7-2.2-1-2.6-.3m56.8 1c-.5.5-.8 1-.6 1s.6-.2 1-.6.7-.6.7-.4.2.4.4.2c.6-.3.5-1-.1-1-.3-.1-1 .2-1.4.7m26.5-.8c-.1.1-.3.6-.3 1 0 .5-.4.8-1.4 1-1.8.3-3.5 1.7-3.2 2.5.1.4.1.5-.1.4s-1 0-1.6.3l-1.2.5 1.3-.1c1.8-.2 3-1 3.2-2 .1-.6.6-1 1-1l1.3-.1c.8-.1 1.3-.7 1.4-1.7.1-1 0-1-.4-.7m-50.2 2.3c-.3.6-.5 1.3-.5 1.6s-.3.6-.8.6-1 .3-1.3.7c-.5.6-.5.6.1.3a3 3 0 0 1 1.3-.4c.4 0 1-.4 1.4-1 .4-.6.4-1 .2-.7-.6.4-.6.1-.1-1 .2-.4.4-1 .3-1s-.4.3-.6 1m20 .7c0 .4.4.4 1.4-.1.7-.3.6-.3-.3-.3-.6 0-1 .2-1 .4m-47 .7c-.2.3-.1.7.2 1 .6.6 3.6 1.3 3 .7-.2-.2-.5-.4-.6-.4-1-.1-2-.7-2.2-1.3-.1-.5-.2-.6-.5-.1m68 2c-.1.2-.4.3-.6.2s-.3-.1-.3.1-.3.7-1 1.2c-1 1-.8 2 .3 1.3.4-.2.8-.3 1-.2s.2.1.1-.1.1-1 .4-1.6c.5-1.3.5-1.8 0-1m-64.2.2c0 .5 1.5 2 2.7 2.5.8.4.8.4.6-.4-.1-.5-.6-1-1-1.2s-.7-.5-.7-.7-.2-.4-.4-.4-.4.1-.4.4c0 .4-.1.4-.4-.1-.2-.3-.4-.4-.4-.2m37.3.8c-1 1-1 2 0 2 .2 0 .2-.3-.1-.6-.4-.5-.4-.6.2-.6.4 0 .8-.4 1-.8.1-.5.4-.7.7-.4.3.2.6.2 1-.1 1-1-1.6-.5-2.6.5m-9.8 1.3c1.3 1.2 2 1.3 2 .3 0-.3-.1-.4-.2 0-.1.3-.5.1-1.2-.5-.5-.5-1.2-1-1.5-1s.1.6.8 1.2m-12.8.7c.3.1.4.4.2.6-.2.3 0 .3.5.1.4-.2 1-.3 1.3-.4 1.2-.2.8-.5-.8-.5-1 0-1.5.1-1.2.2m43 .8c.2.3.1.5-.1.5s-.4.4-.4.8c-.1 1 0 1 .6-.3.3-.7.3-1 0-1.2-.3-.2-.4-.1-.2.2m-10.5 5.6c-.3.2-.5.5-.5.6s-.1.2-.2.2c-.4-.1-1 1.3-.8 1.5.6.6 2.3-.3 2-1.2-.1-.5-.1-.7 0-.4.4.8 1 .6.7-.3-.2-1-.4-1-1.2-.4m-26 3c0 .3.2.4.5.3.3-.2.4-.1.2.4-.2.4-.1.6.2.6.3-.1.4.1.4.4-.1.3.2.4.6.2.5-.2.6-.1.3.3s-.2.5.3.3c.4-.1.7 0 .8.2.1.3.3.2.4-.2.1-.4.1-.6-.1-.5s-.6-.1-.8-.4-.4-.6-.2-.6.1-.3-.2-.6-.7-.5-.8-.4-.4.1-.4-.1-.3-.4-.6-.4-.6.3-.6.6m20.4 2c-.5.6-.7 1-.3.6s.8-.4 1-.3.2.1.1-.1 0-.5.2-.8c.8-1 .1-.5-1 .6" fill="#3e863d"/><path d="M261.2 112l-.2 28c-.1-.5-.6-.7-1.8-.7-1.4 0-1.6-.1-1.6-1 0-1.8-1-2-7.4-2.2-6.8-.2-7.8.1-7.8 2 0 1-.1 1-2.3 1.4-3 .3-3.6.5-4 2-.2 1-.4 1.2-2.4 1.2-2.4 0-3.8 1-3.8 2.4 0 .7-.3.8-1.6.8-1.6 0-1.6 0-1.6 1.6v1.6l-3 .1c-3 .1-3 .1-3.3 1.4-.3 1-.6 1.3-1.4 1.3-2.2 0-4 .8-4.3 2-.4 1-.6 1.2-2.8 1.4-3.3.3-3.6.5-3.8 2-.1 1-.3 1.3-1.4 1.4-2 .2-2-.1-2 26.2-.1 26.6-.1 26.3 2 26.3 1 0 1.2.2 1.2 1 0 2 .3 2.2 3.4 2.2h3l.1 1.5c.1 1.4.2 1.5 1.4 1.6 1 .1 1.3.3 1.5 1.3.3 1.4 1.4 2 4.2 2 1.8 0 2 .1 2 1 0 1.3 1 2.2 2.5 2.2.7 0 1.5.3 2 .6 2.5 2.3 2.4 2.2 5.2 2.2h2.8V228c.1 1.4.2 1.5 1.6 1.6 1.3.1 1.5.3 1.8 1.6l.4 1.5 5.8.2v1.3c0 1.7.4 1.8 4.6 1.8 3.7 0 4.6-.5 4.6-2.2 0-1 .1-1 2.5-1 2.8 0 3.5-.4 3.5-2 0-1 .1-1 1.6-1h1.6v-3.2h3c2.5 0 3-.1 3.3-.7.5-1.2 1.8-2 3.2-2 2 0 3-.7 3-2 0-1 .1-1 2.7-1.4 2.8-.3 3.7-.8 3.7-2.3 0-.5.4-.7 1.5-.8 1.4-.1 1.5-.2 1.6-1.6V214l5.8-.2.1-1.5c.1-1.3.2-1.5 1.2-1.5 2.2 0 2 3 2-57.5L293 95.6c-.7 0-1-.3-1.2-1.2-.3-1.5-1.2-2-3.8-2-2 0-2-.1-2-1 0-1.7-1-2.2-3.8-2.2h-2.6v-1.4c0-1.5-.5-1.8-2.6-1.8-1 0-1.4-.2-1.4-.6 0-1.7-1.8-2.2-8.3-2.2h-6V112M46 134c-.2.4-.4 1-.4 1.4 0 .4-.5.6-1.5.7-1.4.1-1.5.2-1.6 1.6l-.1 1.5-3 .2c-3.5.2-5.4 1-5.6 2.2-.1.7-.4 1-1.8 1-1.6.1-1.7.2-1.8 1.6V145.6h-2.5c-2.7 0-3 .3-3.6 2-.2 1-.5 1-1.8 1.2-1.4.1-1.5.2-1.6 1.4l-.1 1.3H18c-3.2 0-3.6.2-3.6 1.8v1.3l-2.8.2c-1.5.1-3 .3-3 .5a943 943 0 0 0-.4 34.3l-.1 34 1.2 1.2c1.8 1.8 7.2 1.3 7.2-.6 0-.4.4-.6 1.4-.6 1.6 0 2.6-1 2.6-2.2 0-1 .2-1 2.6-1 2.8-.2 3.4-.6 3.4-2.2 0-.7.3-1 1.5-1 1.4-.1 1.5-.2 1.6-1.6l.1-1.5h2.8c3 0 3.6-.4 3.6-2.3 0-.6.3-.8 1.5-1l1.5-.1.2-31h1c1.2 0 2-.7 2-2 0-1 .1-1 1.6-1 1.6 0 1.6 0 1.6-1.4v-1.4h9.5l.1 1.3c.1 1.2.2 1.3 1.8 1.4 1.5.1 1.7.2 1.8 1.2.1.8.5 1.2 1.4 1.6l1.3.6.2 31 1.5.1c1.3.1 1.5.2 1.5 1.2 0 1.6.7 2 3.5 2h2.5v1.4c0 1.5.5 1.8 2.4 1.8 1 0 1.2.2 1.4 1 .3 1.2 2.3 2.2 4.4 2.2 1.3 0 1.4.1 1.4 1.2 0 1.3 1 2 3 2 .5 0 1.6.5 2.4 1 2.5 2 5.4 1.7 6.2-.5.2-.5.8-1 1.6-1 2-.4 2-.2 2-32.4l-2-32.2c-1-.1-1-.3-1-1.4 0-2-.6-2.3-3.5-2.3-2.5 0-2.5 0-2.5-1 0-1.7-.7-2-3.7-2h-2.7v-1.4c0-1.4 0-1.4-1.6-1.4s-1.6 0-1.7-1.5c-.1-1.5-.1-1.5-2-1.6-1-.1-2-.3-2-.5 0-1-2.6-2.8-4-2.8-1.3 0-1.5-.1-1.7-1.2-.3-1.3-2-2-4.7-2-1 0-1.5-.2-1.7-.8-.3-1-2.6-2.4-4-2.4-1 0-1.3-.2-1.6-1.3l-.4-1.3-4-.1c-3.5-.1-4 0-4.3.7m111 2.8c.4.4.8.7 1 .6.2-.2-1-1.4-1.3-1.4-.2 0 0 .4.4.8m185.7-.5c-.1.1-.3 1-.3 1.6v1.3H340c-2.8 0-4.7.7-6 2-.6.7-1.3 1-2.4 1-1.5.1-1.6.2-1.7 1.6-.1 1.4-.1 1.4-2.3 1.7-2.5.3-3.2.7-3.5 2-.2.8-.5 1-2 1-1.6.1-1.7.2-1.8 1.4-.1 1.2-.2 1.2-2.8 1.5-2.7.2-3.3.6-3.3 2.2 0 .8-.2 1-1.8 1-3.7 0-4.2.3-4.5 2.5-.2 1.6-.6 2.3-1.7 3.4L305 162V183.8c-.1 23.2-.1 23.6 1.8 24 1 .2 1.2.4 1.5 3 .3 3 .8 3.4 4.2 3.4h2v1.4c0 1.6.4 1.8 3.6 1.8h2.3l.1 1.5c.1 1.4.2 1.5 1.6 1.6 1.3.1 1.5.3 1.8 1.4.4 1.4 1.2 1.8 4 1.8 1.6 0 2 .2 2 1 .3 1.2 1.6 1.8 4 1.8 1.6 0 1.8.1 1.8 1 0 2 .3 2.2 3.4 2.2h3v3.2h1.6c1.3 0 1.6.1 1.6.7 0 3 7.7 3 8.6.1.2-.6.7-.8 2-1 1.6-.1 1.7-.2 1.8-1.6V229.6h2.3c2.6 0 3.6-.6 3.6-2.2 0-.8.2-1 1.4-1 1.7 0 4-1 4.7-2 .4-.5 1.3-.8 3-1 2.8-.3 3.4-1 3.4-3 0-1 .2-1.6.8-2 1-.5 1-2 0-3.4-.4-.7-.8-1.8-.8-2.5 0-1.2-.1-1.3-1.4-1.3-1.2 0-1.4-.1-1.6-1.4-.3-1.5-1-1.8-4.5-1.8-1.6 0-1.7-.1-1.7-1 0-2-.3-2.2-3.4-2.2h-3l-.1-1.5c-.1-1.3-.2-1.5-1.3-1.6-1-.1-1.3-.4-1.6-1.4-.3-1.2-.5-1.3-2.3-1.4l-2-.1v-2c0-1.4-.1-1.7-.4-1.3-.3.4-.4.4-.4.1 0-.7-1.2-.6-1.5.1-.1.3-.4.5-.6.4-.4-.3-2.2-.5-4-.7-.8 0-1.6-.6-2.5-1.6-1.2-1.3-1.6-1.5-3-1.5h-1.7l-.1-6.6c-.1-7.2.1-7.8 2-8.8.7-.4 2-1.3 2.8-2 2.7-2.6 8.3-2 13.4 1.5 3.7 2.5 3.7 2.5 3.7 10.4 0 8.4 0 8.4 4.4 8.4 3.4 0 4.4-.4 4.4-2 0-1 .1-1.2 1.7-1.3s1.7-.2 1.8-1.4c.1-1.2.2-1.3 2.3-1.5 3-.3 3.3-.5 3.6-2 .2-1 .5-1.2 1.7-1.3 1.4-.1 1.5-.2 1.6-1.6l.1-1.5h2.7c6.3 0 6.5-.5 6.4-15.2-.1-13 .1-12.3-3.6-12.7-2.5-.2-2.6-.3-3-1.4-.2-1.2-2-2-4.5-2-1 0-1.3-.1-1.4-1.3l-.1-1.3-5.8-.2-.1-1.5c-.1-1.4-.2-1.5-1.6-1.6-1.3-.1-1.5-.3-1.8-1.6-.4-1.4-.4-1.5-2.2-1.6-1.5-.1-2-.4-3.4-1.6-1.4-1.3-1.8-1.5-4-1.6-2.4-.2-2.5-.2-2.5-1.2 0-2-.4-2-8-2l-7.3.3m-205 3.3c-.3.2-.8.3-1 .1s-.3 0-.1.2.1.5-.2.5-.4.1-.3.2.8-.1 1.6-.6 1.2-.8 1-.8-.7.2-1 .4m24 .1c.8.3 1.6 1 2 1.6.4.7 1 1 1.5 1 1.2 0 1-.3-.3-1.2-.7-.4-1.3-1-1.3-1-.1-.4-.3-.4-2-.7-1-.2-1-.2.2.3m7.3 2.7c0 .1.3 1 .8 1.8.5 1 .7 1.2.6.6l-.3-1.5c0-.3-.2-.4-.3-.3s-.4 0-.5-.3-.2-.4-.2-.3m14.7 10c1 .4 1.7 1 1.7 1.2s.2.3.4.2c.3-.2.3-.4 0-.6-.3-.2-.5-.5-.4-.7s-.3-.4-.7-.4l-1.7-.3c-.6-.1-.2.1.7.6m-66.7-.1c0 .3-.3.4-.6.2s-.7 0-.8.2c-.2.3 0 .3.5.2.6-.2.7-.2.2.4-.3.4-.7.6-1 .5s-.2.1-.1.4c.2.5.5.3 1.2-.6.6-.7 1-1.3.8-1.5s-.2 0-.2.2m72.6 3c1 .3 1.8 1 2 1.3s.5.5.5.3c0-.5-1-1.6-1.4-1.7l-1.6-.3c-1-.2-1-.1.4.4m-80.4.3c-.2.3-.3.7-.4 1-.2 1.2-.6 1.7-1.5 1.7-.5 0-1 .2-1.4.5-.6.7-1 5-.5 5 .2 0 .3-.3.2-.6s0-.8.2-1 .3-.7.2-.8-.1-.3.2-.3.7-.4 1-.8c.4-.7.3-.8 0-.5-.3.2-.4.1-.2-.2.2-.3.6-.4 1-.3s.5.1.4-.1.1-.6.4-.8.6-.7.6-1 .4-.8.8-1 .7-.7.5-.8c-.4-.4-1-.3-1.2.2m83 4.4c.1 1.2.3 1.7.7 1.8H194c.5 0 .6.3.5.8-.1.4 0 .8.2.8 1 0-.1-4.2-1.2-4.8-1.3-.7-1.6-.5-1.5 1.3m3 20V188v-15.2c-.1-4.2-.1-1-.1 7.5m56.6-5.8c0 1.8.3 2 3.4 2h3V178c.1 1.4.2 1.5 1.6 1.6l1.5.1-.2 12.6-2.8.1c-3 .1-3.4.4-3.4 2.2v1h-9.6v-1c0-1.7-.7-2-3.5-2-2.8 0-3-.4-1.5-1.7 1.8-1.4 1.3-10-.7-11-.3-.1.2-.2 1-.2 1.5 0 1.5-.1 1.5-1.6v-1.6l6.2-.2.1-1.3c.2-1.6 3.3-2 3.3-.5M105 207l.3 1.8c0 .8.7 1.6 1 1.4.2-.1.4 0 .4.2s.3.4.7.4 1 .4 1.2 1c.5 1 3 2.6 3 1.8 0-.2-.2-.4-.4-.4s-.3-.2-.2-.5c.2-.6-1.3-2-1.7-1.7-.1.1-.5 0-.8-.2a9 9 0 0 0-1.4-.9c-.5-.2-1.2-1.2-1.6-2.2-.4-1-.6-1.3-.5-.6m89 .7c-.3.3-.8.5-1.2.4s-.7 0-.7.2.3.3.7.2c.5-.2.5 0-.3.8-1.6 1.7-.8 1.5 1.2-.4 1-1 1.6-1.7 1.3-1.7s-.7.2-1 .5m-5 5.4c0 .2-.3.5-.7.6-.5.1-.5.2.2.2.6 0 1-.2 1-.6 0-.3-.1-.6-.2-.6s-.2.2-.2.4m-74.4 2.6c0 1 2.4 2 3 1.3.1-.1-.1-.3-.4-.3-1.5-.1-2.4-.6-2-1.2.1-.2 0-.5-.2-.6-.2-.1-.4.2-.4.8m70.7-1c-.2.4-.2 2 .1 2 .3 0 .8-1 .8-1.6 0-.3-.7-.5-1-.3m-64.7 3.7c-.1 1 .7 1.8 1.7 1.7.7 0 .7-.1-.2-.3-.6-.2-1-.7-1.3-1.3-.2-.8-.3-1-.3-.2m3.6 2.7c0 1 .4 1.6 1.4 1.8 1 .2 2.8.5 2 .3-.4-.1-.7-.5-.7-1 0-.4-.1-.5-.2-.2-.1.3-.4.5-.6.5s-.3-.2-.1-.5c.2-.3.1-.4-.2-.2-.3.2-.7-.2-1-.8l-.6-1v1m73.8-.5c-.6.2-.5.3.5.3.7 0 1.3-.1 1.3-.1 0-.3-1-.4-1.8-.2m-3.3.8c-1.8 1-1.7 2 .1 2 1 0 1.3-.2 1.2-.5-.1-.3.1-.8.4-1 1.4-1.2.1-1.5-1.7-.4m5.5-.7c0 .1.3.8.6 1.5.5 1.2.6 1.2.5.3-.1-.8-1-2.5-1-1.8m-24.7 1c-.3.4-.8.8-1 .8s-.7.2-.8.4c-.2.3.1.3 1 .1 1.4-.3 2-1 2-1.6 0-.8-.5-.7-1 .2m-45 2.4c-.2 1 .7 1.8 1.5 1.4.3-.1.6-.1.6.2s.3.4.6.4c.4 0 .5-.3.4-.8-.1-.4-.4-.7-.7-.6-.3.1-1-.2-1.3-.6-.8-.8-.8-.8-1 0m1.3-.2c.3.3.6.5.8.3.5-.3.1-.7-.7-.8-.5-.1-.5 0-.1.5m38-.2c0 .4-.4 1-1 1.3s-.7.8-.5 1 .4.1.5-.2.3-.4.5-.3c.5.3 1-.8.6-1.7-.2-.6-.2-.6-.2 0m18.2-.1c-.6.1-1.2.5-1.3 1s-.2 1-.4 1.4c-.4 1 .2.5.8-.7.3-.5 1-1 2-1.4 1.7-.5 1-.6-1.2-.2m20 1.2c1 1.5 3 2.3 2.4 1l-.2-.7c0-.1-.7-.5-1.6-1l-1.6-.8 1 1.5m-71.8 2.2c0 1.6.4 2.3 1.4 2.3.5 0 1-.2 1-.4s-.3-.3-.7-.1c-.4.2-.6.1-.4-.2.2-.3 0-.5-.3-.5-.4 0-.5-.3-.4-.8.1-.4 0-1-.2-1s-.4.2-.4.8m45.6-.1c0 .2-.2.4-.5.3s-.5.1-.4.4-.1.5-.3.5-.4.3-.4.6c0 1 .7.7 1-.2.1-.4.6-1 1-1 1-.3 1-1 .2-1-.3 0-.6.2-.6.4m31.5.3c.8.8 1 .8.8-.1-.1-.3-.5-.6-.8-.6-.5 0-.5.1.1.7m-50 1.3c-.6.6-.6.7-.1.7.3 0 .7-.3.8-.6.3-1 0-1-.8-.1m55.3 1.5c0 .2.2.4.4.4s.7.6 1 1.3c.5 1 .6 1 .4.3-.1-.6-.2-1.2-.2-1.5s-.2-.4-.4-.3-.4.1-.4-.2-.2-.4-.4-.4-.4.2-.4.4m-72.6 3.5c.4 1.7 3 2.3 7 1.6.7-.1 2-1 1.4-1-.2 0-.1-.4.1-.8.3-.5.3-.8 0-.8-.2 0-.4.2-.4.5 0 1-1.4 1.8-3.4 1.8-2 0-4-1-3.6-1.6.2-.3.1-.3-.2-.2-.3.2-.5.1-.5-.1s-.2-.4-.4-.4c-.3 0-.3.4-.2 1m25.8-.3c-.3.2-.6.8-.7 1.5l-.1 1 .7-1c.4-.5 1-1 1.4-1.4 1-.6-.3-1-1.3-.3m22.4 3.2c-.2.4-.8 1-1.2 1-1 .3-.7 1 .2 1 .8 0 2-1.2 1.6-1.7-.1-.2 0-.6.3-.8.4-.2.4-.4.1-.4-.3 0-.7.3-1 .8m34.5.1c.5.5 1 1 1 .8.2-.2-1.2-1.7-1.6-1.7-.2 0 .1.4.6 1m-62 1.2c-.7.7-.6 1 .1 1 .3 0 .6-.4.6-.8 0-1-.1-1-.7-.3m-5.8 1.5c-1.5.5-2.2 1-2.2 2 .1 1-.1 1 2-.8 1-1 1.7-1.6 1.6-1.6s-.7.2-1.3.4m25.3 1c-.2 1.5 0 1.5 1.6.1 1.2-1 1-1.5-.3-1.5-1 0-1.2.2-1.3 1.4m48.8-.3c1 1 1.8 1.4 1 .4-.2-.3-.3-.7-.2-1s.1-.2-.2-.1-.6.1-.7-.1-.4-.4-.6-.4.1.5.7 1m12.5-.8c-.3.2.4.3 1.6.2 3-.2 3.3-.4 1-.5a7 7 0 0 0-2.5.3m8.5.1c.6.3 1.4 1 1.7 1.5l.6 1-.3-1c-.3-1.3-.5-1.5-2-1.8l-1.2-.2 1 .5m-10 .3c.1.2-.2.5-.7.6s-1.3 1-1.8 1.7c-1.2 2-1 2.3.1.5.5-.8 1.3-1.6 1.7-1.7.6-.2.6-.2 0 .6-.4.4-.5.8-.3.8s.7-.5 1-1.2c.7-1.4.7-1.6.2-1.6-.2 0-.3.2-.2.4m-90.5 3.2c-.3.4-.5 1-.5 1s.2 0 .4-.4.8-1 1.3-1c.8-.3.8-.4.1-.4-.4 0-1 .3-1.3.8M260 243c.8.8 1 .8.8-.1-.1-.3-.5-.6-.8-.6-.5 0-.5.1.1.7m-20.7 1.5c0 .4.4.6 1.3.6 1.2 0 1.3 0 .5-.6-1-.8-1.8-.7-1.8 0m-62.8 1.7v1l2-2c0-.1-.5-.1-1-.1-.8 0-1 .2-1 1m41 .5c.1.5.4 1.2.6 1.4.6.6.4-.3-.3-1.4l-.6-1 .3 1m-44.6 2.6c-.3.6-1 1.2-1.5 1.4s-1 .5-1 .6.3.1.7 0 1-.3 1.3-.4.6-.3.7-.7.2-1 .4-1.3c.4-1 0-.8-.5.3m-20.8.1c-.7 1.2-.5 1.6.2.5.4-.5.5-1 .4-1s-.4.2-.6.6m-.2 22.5l.1 10.3v-20.6a75 75 0 0 0-.1 10.3m42.2-20c-.3.2-.8.3-1 .1s-.3 0-.1.2.1.5-.2.5-.4.1-.2.3.5 0 1-.3 1.2-.6 2-.8c1-.3 1-.3.3-.3-.5 0-1.3.1-1.6.3m26 0c0 .2.3.5.8.6s1.2 1 1.8 1.6 1.3 1.4 1.6 1.4.8.4 1.2 1 .7.7 1 .6.1-.4-.2-.6-.5-.5-.4-.6-.3-.4-.8-.5c-1.2-.2-2-.8-1.8-1.5.3-.7-.4-1.6-1.3-1.7-.4 0-1-.2-1.2-.4s-.5-.1-.5.1m8.4 0c0 .2.4.6.8.8.7.4.8.3.8-.4 0-.5-.3-.8-.8-.8-.4 0-.8.2-.8.4m-62 4.2c0 1 .1 1.5.2 1s.1-1.5 0-2-.2 0-.2 1m23.3-.8c-.3.3-.6.8-.6 1s.2.2.4-.2.7-1 1-1 .5-.4.2-.4-.8.3-1 .6m69.7.8c-.4.6-.5 1-.3 1.2.2.1.4 0 .4-.2s.2-.3.5-.2c.3.2.4.1.2-.4-.1-.4-.1-.7.1-.7s.4-.2.4-.4c0-.7-.6-.4-1.3.6m-17 1c.2.2.8.5 1.4.6l1 .3-1-.6c-1-.7-2-.8-1.4-.3m3.3 1c.3.1.4.4.3.6-.4.6.7 1.6 1.5 1.3.5-.1.7 0 .7.3 0 .3.1.4.3.2.3-.3-2.3-2.6-3-2.6-.2 0-.2.1.1.2m-18.3 4.4l.8 1.5-1 1.2c-1 1-1 1-.2.7 1.8-1 2-3 .4-4.4-.5-.4-.4-.1.2 1m-1.2 1c0 1.3.1 1.4.6 1s.5-.7-.1-1.5c-.6-1-.6-1-.6.6m-18.5 1c0 .2 1 .6 2.5.8l3.2.7c.4.1.7 0 .7-.2s-.2-.4-.5-.4c-.3 0-.3-.1.1-.4.4-.3.1-.4-1.5-.3-1.2.1-2 0-2-.2s-.5-.3-1.2-.3-1.2.2-1.2.3m17 5c-.5.4-.6.6-.2.5.3-.1.8.1 1 .5.3.4.5.4.5.2 0-.3-.2-.6-.4-.7-.3-.2-.3-.4.1-.6.3-.2.4-.3.1-.3s-.8.3-1.2.6m1.4 3.3c0 .7.4 1.6 1 2 1.8 1.8 2 7 0 9-1.2 1.3-1.4 3.7-.2 3 1-.6 2-3 1.8-4.2-.2-.6-.1-1 .2-1s.4-1 .4-2.4c0-1.4-.2-2.4-.4-2.4s-.3-.4-.2-1c.3-1-1-3.6-2-4-.4-.2-.6.1-.6 1m-36.8-.1c.5.8.5 1 0 1.3-.3.2-.4.4-.1.4s.7-.3 1-.6.8-.5 1-.3c.4.2.5.1.3-.2-.2-.3-.5-.4-.8-.3s-.8-.1-1.2-.5c-.7-.6-.7-.6-.2.3m14 6.4c.5.1 1.3.1 1.8 0s.1-.2-1-.2-1.4.1-1 .2m.5 1c0 .2 1.5.4 3.8.4s3.8-.2 3.8-.4-1.5-.4-3.8-.4-3.8.2-3.8.4m-37.7 7c-.1 1 0 2 .3 2.3.4.5.4.2.3-1.3-.3-2.7-.4-3-.6-1m23 .5c0 1.5 2.3 4.2 3 3.5.5-.5-.7-2.3-1.5-2.3-.4 0-1-.4-1-1s-.4-.6-.4-.3m34.8 2.6c-1 1-1.3 2-.3 1 .2-.2.6-.3 1-.3.4 0 .6-.3.6-.7 0-.4.1-.6.3-.5s.4-.1.4-.4c0-1-.6-.7-2 .8m-28.5 2c0 .3.2.6.4.6s.3.3.3.7c0 .4.2.7.6.6.4 0 .7.1.7.3s.4.4.8.4c1 0 1-.7-.2-1-.6-.1-1.2-.7-1.5-1.2-.5-1-1-1.3-1-.4m-24.4 0c0 .1.5.6 1 1s1 1 1 1.4c0 .3.4.6 1 .6 1.3 0 1.3-.2-.4-1.8-1.2-1.2-2.6-1.8-2.6-1m-19.6.6c0 .3.3 1 .6 1.4.8 1 .8.3 0-1-.4-.6-.6-.8-.6-.4m67.7.4c-.3.4-.8.8-1 .8s-.6.2-.6.4.3.4.6.4.6-.2.6-.4.1-.4.3-.3.3-.1.4-.3.3-.5.5-.6.3-.4.1-.5-.6.1-.8.5m3.6.6c-1 .8-1 1.4-.1 1.4.4 0 1-.4 1-1 .3-1.2.2-1.2-1-.5m-22 1c.6.1 1.6.1 2.2 0s.1-.2-1-.2-1.7.1-1 .2m13.2 0c.6.1 1.5.1 2 0s0-.2-1-.2-1.5.1-1 .2m-59 3.3c.2.3.4 1 .4 1.3.1 1 1.5 2 2 1.2.1-.2-.5-1-1.2-1.7s-1.2-1-1-.8m56.6 1c-.3.3-.4.7-.3 1 .3.3 1.5-.6 1.5-1 0-.6-.7-.4-1.2.3m24 3c-.2.6-.8 1.4-1.4 1.7s-.8.5-.4.4 1-.2 1-.2c.5 0 1.2-2 1-2.6-.1-.2-.3.1-.4.7m-47.3 1.3c-.5.5-.7 1-.5 1 .5 0 1.6-1.2 1.6-1.6 0-.5 0-.5-1 .7m-26.8.2c.1.3.7.6 1.4.7.7 0 1 0 .4-.1-.4-.1-1-.4-1.4-.7-.4-.4-.5-.3-.4.1m3 1.4c0 1 1.4 2.2 2.8 2.4l1.4.2-1-.6c-.6-.3-1-.8-.8-1 .2-.3.1-.3-.2-.2-.2.2-.7-.1-1-.5-.6-1-1-1-1-.3m27.2-.3c0 .7 2.8 2.8 3 2.3.1-.3 0-.8-.2-1-.4-.5-2.8-1.5-2.8-1.2m10.6.4c-.3.3-.6.8-.6 1s.2.2.4-.2.7-1 1-1 .5-.4.2-.4-.8.3-1 .6m27 .6c0 .4-.4 1-1 1.3s-.7.6-.5.6c.8 0 2-1.2 1.7-2-.2-.6-.2-.6-.2-.1m-56.5 2.7c1.2 1 3.4 1 5.5 0l1.6-.8h-8l1 .8m40 7.4c-.5.5-.5.6.2.5.4-.1.8-.4 1-.6.2-.7-.4-.6-1 .2m-26.2 1.7c-.3.5.2 1.5 1 1.8 1 .4 1.2-.3.2-1.3-.5-.5-1-.7-1-.5" fill="#343434"/></svg>