<svg xmlns="http://www.w3.org/2000/svg" xmlns:xlink="http://www.w3.org/1999/xlink" width="257" height="257" version="1.1" preserveAspectRatio="xMidYMid" style=""><rect id="backgroundrect" width="100%" height="100%" x="0" y="0" fill="none" stroke="none" class="selected" style=""/>
	
<g class="currentLayer" style=""><title>Layer 1</title><g id="svg_1">
		<g fill="#1A1918" id="svg_2">
			<path d="M67.516834,313.8635101515625 C66.9753105,313.8635101515625 66.3906671,313.7266592515625 65.9847187,313.1776779515625 L48.6011921,290.3164714915625 L48.6011921,313.6351623515625 L44.6368825,313.6351623515625 L44.6368825,284.9209160015625 C44.6368825,283.7783881015625 45.5828006,282.8638136415625 46.6646822,282.8638136415625 C47.2943879,282.8638136415625 47.8355229,283.0464130215625 48.239529,283.5953943315625 L65.5791587,306.4112466515625 L65.5791587,283.1836583515625 L69.5430798,283.1836583515625 L69.5430798,311.8517618515625 C69.5430798,313.0408269515625 68.5971618,313.8635101515625 67.516834,313.8635101515625 " id="svg_3"/>
			<path d="M100.306277,314.1379613515625 C96.3435217,314.1379613515625 92.1993517,313.3144894515625 88.3259436,311.8521167515625 L89.2722501,308.5594121515625 C92.8302228,309.7027287515625 96.7032425,310.5258063515625 100.306277,310.5258063515625 C105.305853,310.5258063515625 107.917907,308.7424058515625 107.917907,306.2282134515625 C107.917907,303.9415801515625 105.890496,302.7986578515625 98.9097372,299.5063475515625 C91.9289785,296.2144316515625 89.1825141,294.1115808515625 89.1825141,289.9957985715625 C89.1825141,284.8301684515625 93.1452698,282.7257401095625 100.620936,282.7257401095625 C103.729063,282.7257401095625 108.502551,283.3666126815625 111.250957,284.1896902615625 L110.620086,287.5727086715625 C107.601695,286.8415223715625 103.819576,286.3386838915625 100.711449,286.3386838915625 C95.4430543,286.3386838915625 93.2808449,287.3439664615625 93.2808449,289.8593420115625 C93.2808449,292.3277859515625 94.8564686,293.3796057515625 102.242787,296.8091613515625 C110.034666,300.4213163515625 112.016238,302.2504653515625 112.016238,305.9990768515625 C112.016238,311.4407751515625 106.881088,314.1379613515625 100.306277,314.1379613515625 " id="svg_4"/>
			<path d="M130.798131,283.1836583515625 L134.896461,283.1836583515625 L134.896461,313.6347679515625 L130.798131,313.6347679515625 L130.798131,283.1836583515625 z" id="svg_5"/>
			<path d="M169.757834,299.8269021515625 L159.578047,299.8269021515625 L159.578047,310.1609230515625 L169.757834,310.1609230515625 C173.225294,310.1609230515625 175.342053,307.9657866515625 175.342053,304.9018241515625 C175.342053,302.0212498515625 173.135558,299.8269021515625 169.757834,299.8269021515625 M167.775097,286.6584497215625 L159.578047,286.6584497215625 L159.578047,296.3977409515625 L167.775097,296.3977409515625 C171.063473,296.3977409515625 173.450217,294.2941013515625 173.450217,291.3681729615625 C173.450217,288.4875986415625 171.378132,286.6584497215625 167.775097,286.6584497215625 M169.802508,313.6350440515625 L157.552578,313.6350440515625 C156.38096,313.6350440515625 155.480104,312.7200751515625 155.480104,311.5775472515625 L155.480104,285.2414311615625 C155.480104,284.1434685515625 156.38096,283.1839344215625 157.552578,283.1839344215625 L167.685749,283.1839344215625 C173.900839,283.1839344215625 177.59361,286.2471081215625 177.59361,291.0483282515625 C177.59361,293.6540175515625 176.062271,296.0775018515625 173.719813,297.4949147515625 C177.189215,298.5467345515625 179.529731,301.4269144515625 179.529731,304.9018241515625 C179.529731,309.7483983515625 175.522302,313.6350440515625 169.802508,313.6350440515625 " id="svg_6"/>
			<path d="M199.212246,313.6350834515625 C198.088022,313.6350834515625 197.186778,312.6747605515625 197.186778,311.5775866515625 L197.186778,283.1839738615625 L201.284331,283.1839738615625 L201.284331,309.9318259515625 L217.588307,309.9318259515625 L217.588307,313.6350834515625 L199.212246,313.6350834515625 z" id="svg_7"/>
			<path d="M245.526181,314.1379613515625 C237.148883,314.1379613515625 232.104634,311.0290392515625 232.104634,304.7650520515625 C232.104634,301.7929808515625 233.771547,298.95815505156247 237.014473,297.6322389515625 C234.40203,295.9860838515625 233.051329,293.6540964515625 233.051329,291.0937611815625 C233.051329,285.4245038115625 237.421198,282.7257401095625 245.617083,282.7257401095625 C248.364713,282.7257401095625 252.237344,283.0463735915625 255.480658,283.7783486615625 L255.029647,287.1613670815625 C251.607638,286.6123857715625 248.408609,286.2933298315625 245.301259,286.2933298315625 C239.986637,286.2933298315625 237.148883,287.7557024415625 237.148883,291.2767549515625 C237.148883,294.0662267515625 239.761714,296.2605744515625 243.230339,296.2605744515625 L250.255383,296.2605744515625 C251.246364,296.2605744515625 252.011644,297.0379035515625 252.011644,297.9978321515625 C252.011644,299.0035090515625 251.246364,299.7808382515625 250.255383,299.7808382515625 L242.69037,299.7808382515625 C238.725672,299.7808382515625 236.204907,301.7464436515625 236.204907,304.7650520515625 C236.204907,309.1998902515625 240.303238,310.5258063515625 245.437222,310.5258063515625 C248.229914,310.5258063515625 252.011644,310.1610019515625 255.073933,309.4290268515625 L255.660907,312.7662968515625 C252.73264,313.5897688515625 248.903905,314.1379613515625 245.526181,314.1379613515625 " id="svg_8"/>
			<path d="M14.1379982,288.8946809015625 L21.3157099,306.8789456515625 L10.4751393,298.2096158515625 L14.1379982,288.8946809015625 zM26.8894398,311.0223347515625 L15.8495854,284.0477123315625 C15.5345384,283.2703832015625 14.9036674,282.8586472215625 14.1379982,282.8586472215625 C13.372329,282.8586472215625 12.6967842,283.2703832015625 12.3817372,284.0477123315625 L0.26388588800000007,313.6351228515625 L4.40844431,313.6351228515625 L9.20601639,301.4368529515625 L23.5202622,313.17763845156253 C24.0959709,313.6497150515625 24.5112425,313.8634707515625 25.0523775,313.8634707515625 C26.1327053,313.8634707515625 27.0786234,313.0407875515625 27.0786234,311.8521167515625 C27.0786234,311.6592634515625 27.0106416,311.3524333515625 26.8894398,311.0223347515625 L26.8894398,311.0223347515625 z" id="svg_9"/>
		</g>
		<g id="svg_10">
			<path d="M255.878566,127.868028 C255.878566,198.323171 198.768494,255.43274 128.312347,255.43274 C57.8622265,255.43274 0.746127325,198.323171 0.746127325,127.868028 C0.746127325,57.4179077 57.8622265,0.301808544 128.312347,0.301808544 C198.768494,0.301808544 255.878566,57.4179077 255.878566,127.868028" fill="#1A1918" id="svg_11"/>
			<path d="M130.459863,78.228885 L163.47146,159.705138 L113.608007,120.427335 L130.459863,78.228885 Z M189.104342,178.474123 L138.32577,56.2720498 C136.876246,52.7476854 133.977698,50.8827909 130.459863,50.8827909 C126.935499,50.8827909 123.826002,52.7476854 122.376477,56.2720498 L66.6436045,190.312411 L85.708924,190.312411 L107.771234,135.047143 L173.610097,188.23707 C176.258016,190.378208 178.168617,191.346566 180.652297,191.346566 C185.626186,191.346566 189.973756,187.617782 189.973756,182.235555 C189.973756,181.359612 189.664363,179.969354 189.104342,178.474123 L189.104342,178.474123 Z" fill="#FFFFFF" id="svg_12"/>
		</g>
	</g></g></svg>