<svg width="64" height="64" viewBox="0 0 64 64" xmlns="http://www.w3.org/2000/svg"><g fill="none"><rect width="64" height="64" rx="4" fill="#2D9CDB"/><path d="M4 9h22v2H4V9zM38 9h22v2H38V9z" fill="#1973A6"/><path fill-rule="evenodd" clip-rule="evenodd" d="M32 6a7.003 7.003 0 0 0-6.492 4.375l-1.854-.75a9.003 9.003 0 0 1 16.69 0l-1.853.75A7.003 7.003 0 0 0 32 6z" fill="#1973A6"/><g fill="#D7EDFA"><path d="M8.936 28V15h4.68c.68 0 1.32.053 1.92.16.6.093 1.12.26 1.56.5.44.24.787.573 1.04 1 .267.413.4.94.4 1.58 0 .28-.04.567-.12.86a3.95 3.95 0 0 1-.34.82 2.8 2.8 0 0 1-.5.68c-.2.2-.427.347-.68.44v.08a3.289 3.289 0 0 1 1.58 1.02c.44.48.66 1.153.66 2.02 0 .667-.14 1.247-.42 1.74-.267.48-.633.88-1.1 1.2-.453.307-.993.533-1.62.68a8.663 8.663 0 0 1-1.98.22h-5.08zm3.44-7.92h1.16c.56 0 .973-.12 1.24-.36s.4-.56.4-.96c0-.4-.133-.687-.4-.86-.267-.173-.68-.26-1.24-.26h-1.16v2.44zm0 5.28h1.4c1.333 0 2-.48 2-1.44 0-.48-.167-.82-.5-1.02-.32-.2-.82-.3-1.5-.3h-1.4v2.76zM24.542 21.68l-.22.9h2.4l-.22-.9a59.85 59.85 0 0 1-.48-2.04c-.16-.733-.32-1.427-.48-2.08h-.08l-.46 2.1c-.147.72-.3 1.393-.46 2.02zm-5 6.32l3.96-13h4.16l3.96 13h-3.64l-.64-2.76h-3.64l-.64 2.76h-3.52zM38.307 28.24c-.827 0-1.62-.133-2.38-.4a5.78 5.78 0 0 1-1.98-1.24c-.56-.56-1.007-1.253-1.34-2.08-.334-.84-.5-1.813-.5-2.92 0-1.093.173-2.06.52-2.9.346-.853.806-1.567 1.38-2.14a6.065 6.065 0 0 1 2-1.34 6.302 6.302 0 0 1 2.38-.46c.866 0 1.64.173 2.32.52.68.333 1.253.733 1.72 1.2l-1.8 2.2a4.742 4.742 0 0 0-1-.68 2.335 2.335 0 0 0-1.16-.28c-.387 0-.754.087-1.1.26-.334.173-.634.42-.9.74-.254.32-.46.713-.62 1.18a5.26 5.26 0 0 0-.22 1.58c0 1.227.253 2.167.76 2.82.52.653 1.2.98 2.04.98.506 0 .953-.107 1.34-.32.4-.227.74-.493 1.02-.8l1.8 2.16a5.467 5.467 0 0 1-1.94 1.44c-.72.32-1.5.48-2.34.48zM44.385 28V15h3.44v4.84h.08l3.28-4.84h3.76l-3.88 5.28 4.64 7.72h-3.76l-2.88-5-1.24 1.76V28h-3.44z"/></g><g fill="#D7EDFA"><path d="M9.073 49V32.1h10.92v3.744h-6.448v2.652h5.512v3.744h-5.512v3.016h6.708V49H9.073zM23.52 49V32.1h4.576l3.744 7.54 1.612 3.796h.104c-.052-.45-.112-.945-.182-1.482-.069-.537-.13-1.083-.182-1.638l-.156-1.69a27.092 27.092 0 0 1-.052-1.638V32.1h4.264V49h-4.576l-3.744-7.566-1.612-3.77h-.104c.104.97.226 2.028.364 3.172.14 1.144.208 2.236.208 3.276V49H23.52zM40.99 49V32.1h4.991c1.283 0 2.453.156 3.51.468 1.075.312 1.994.806 2.756 1.482.763.676 1.352 1.543 1.768 2.6.433 1.057.65 2.331.65 3.822 0 1.49-.208 2.773-.624 3.848-.416 1.075-1.005 1.959-1.768 2.652-.745.693-1.638 1.205-2.678 1.534-1.022.33-2.14.494-3.354.494H40.99zm4.471-3.588h.26c.607 0 1.179-.07 1.716-.208a3.289 3.289 0 0 0 1.378-.78c.399-.364.71-.867.936-1.508.225-.641.338-1.456.338-2.444s-.113-1.794-.338-2.418c-.225-.624-.537-1.11-.936-1.456a2.985 2.985 0 0 0-1.378-.702 6.845 6.845 0 0 0-1.716-.208h-.26v9.724z"/></g><g><path d="M60 55H38v-2h22v2zM26 55H4v-2h22v2z" fill="#1973A6"/><path fill-rule="evenodd" clip-rule="evenodd" d="M32 58a7.003 7.003 0 0 0 6.492-4.375l1.854.75a9.003 9.003 0 0 1-16.69 0l1.853-.75A7.003 7.003 0 0 0 32 58z" fill="#1973A6"/></g></g></svg>