<svg width="128" height="128" xmlns="http://www.w3.org/2000/svg" preserveAspectRatio="xMidYMid"><path fill="none" d="M-1-1h130v130H-1z"/><g><g stroke="null"><path fill="#A9B9CB" d="M115.495 40.13c0-1.95-.417-3.67-1.26-5.148-.826-1.453-2.065-2.67-3.726-3.634-13.713-7.914-27.44-15.804-41.146-23.726-3.695-2.135-7.28-2.058-10.947.11-5.458 3.22-32.783 18.89-40.926 23.612-3.352 1.943-4.984 4.917-4.985 8.782-.005 15.916 0 31.83-.005 47.747 0 1.906.4 3.594 1.204 5.05.827 1.497 2.083 2.748 3.783 3.733 8.143 4.72 35.472 20.39 40.928 23.613 3.67 2.166 7.254 2.243 10.95.107 13.708-7.922 27.434-15.812 41.15-23.726 1.698-.984 2.954-2.236 3.78-3.73.805-1.457 1.204-3.145 1.205-5.05 0 0 0-31.824-.005-47.74"/><path fill="#7F8B99" d="M69.27 7.726c-3.688-2.13-7.266-2.053-10.928.108-5.45 3.214-32.73 18.843-40.86 23.552-3.347 1.938-4.976 4.904-4.977 8.76-.005 15.874 0 31.748-.005 47.623 0 1.9.4 3.583 1.202 5.035.826 1.493 2.08 2.74 3.777 3.723a3624.518 3624.518 0 0 0 8.11 4.676l75.275-75.276C90.332 19.863 79.797 13.803 69.27 7.726"/><path fill="#FFF" d="M74.644 56.745l16.03.113c0-6.68-6.76-23.034-26.142-23.034-12.348 0-28.95 7.85-28.95 30.42 0 22.572 16.274 29.932 28.95 29.932 20.526 0 25.432-14.204 25.432-22.23l-15.292-.875s.41 9.285-10.222 9.285c-9.813 0-11.45-12.02-11.45-16.11 0-6.215 2.21-16.19 11.45-16.19 9.24 0 10.194 8.69 10.194 8.69"/></g></g></svg>