<svg width="128" height="128" xmlns="http://www.w3.org/2000/svg" preserveAspectRatio="xMinYMin meet"><path fill="none" d="M-1-1h130v130H-1z"/><g><g stroke="null"><path fill="#5C8DBC" d="M115.786 40.018c0-1.957-.42-3.687-1.266-5.172-.832-1.46-2.077-2.683-3.748-3.65-13.79-7.952-27.593-15.88-41.378-23.838-3.716-2.145-7.32-2.067-11.008.11-5.49 3.236-32.97 18.98-41.158 23.723-3.372 1.953-5.013 4.94-5.014 8.824-.005 15.99 0 31.98-.005 47.97 0 1.916.4 3.612 1.21 5.074.832 1.504 2.095 2.76 3.804 3.75 8.19 4.744 35.673 20.486 41.16 23.724 3.69 2.178 7.294 2.255 11.01.11 13.787-7.96 27.59-15.887 41.382-23.838 1.71-.99 2.972-2.247 3.804-3.75.81-1.462 1.21-3.158 1.21-5.073 0 0 0-31.97-.004-47.962"/><path fill="#1A4674" d="M64.158 63.844L13.42 93.058c.832 1.504 2.095 2.76 3.804 3.75 8.19 4.744 35.673 20.486 41.16 23.724 3.69 2.178 7.294 2.255 11.01.11 13.787-7.96 27.59-15.887 41.382-23.838 1.71-.99 2.972-2.247 3.804-3.75l-50.422-29.21"/><path fill="#1A4674" d="M49.13 72.497c2.953 5.155 8.503 8.63 14.87 8.63 6.406 0 11.988-3.52 14.926-8.73l-14.768-8.553-15.028 8.653"/><path fill="#1B598E" d="M115.786 40.018c0-1.957-.42-3.687-1.266-5.172L64.158 63.844l50.422 29.21c.81-1.462 1.21-3.158 1.21-5.073 0 0 0-31.97-.004-47.962"/><path fill="#FFF" d="M113.013 65.932h-3.94v3.94h-3.94v-3.94h-3.94v-3.94h3.94v-3.94h3.94v3.94h3.94v3.94m-14.377 0h-3.94v3.94h-3.94v-3.94h-3.94v-3.94h3.94v-3.94h3.94v3.94h3.94v3.94"/><path fill="#FFF" d="M78.926 72.398c-2.938 5.21-8.52 8.73-14.926 8.73-6.367 0-11.917-3.476-14.87-8.63A17.047 17.047 0 0 1 46.87 64c0-9.46 7.67-17.13 17.13-17.13 6.326 0 11.847 3.434 14.814 8.536l14.972-8.62C87.836 36.512 76.726 29.6 64 29.6c-18.998 0-34.398 15.4-34.398 34.398 0 6.232 1.658 12.077 4.556 17.118C40.093 91.444 51.235 98.398 64 98.398c12.79 0 23.948-6.982 29.875-17.34l-14.95-8.66"/></g></g></svg>