<svg width="128" height="128" xmlns="http://www.w3.org/2000/svg"><path fill="none" d="M-1-1h130v130H-1z"/><g><path stroke="null" fill="#007ac3" d="M49.366 122.635c-6.25-.88-13.23-2.477-17.577-4.023-9.095-3.235-16.552-8.5-19-13.412-1.217-2.44-1.263-2.856-1.263-11.227 0-4.86.194-8.693.44-8.693.245 0 1.01.968 1.703 2.15 6.4 10.92 29.166 18.175 54.005 17.212 22.985-.892 41.21-7.81 46.188-17.53.654-1.276 1.394-2.32 1.646-2.32.83 0 1.112 3.373.892 10.648-.197 6.507-.334 7.4-1.472 9.615-3.97 7.732-15.402 13.71-32.332 16.908-7.083 1.338-25.806 1.717-33.232.672zm2.685-23.742C36.97 97.378 23 92.233 16.413 85.77c-4.345-4.266-4.615-5.126-4.794-15.26-.103-5.826.015-8.665.36-8.665.282 0 1.06.866 1.728 1.924 4.242 6.72 15.3 12.343 29.752 15.13 28.816 5.562 62.534-1.843 70.192-15.414.813-1.44 1.663-2.618 1.89-2.618.743 0 1.087 4.373.864 10.97-.198 5.82-.357 6.768-1.55 9.204-6.144 12.56-34.692 20.675-62.803 17.85zm1.466-23.922c-19.348-1.708-35.812-8.92-40.418-17.704-1.232-2.35-1.322-2.967-1.484-10.16-.21-9.358.103-10.25 2.364-6.73 4.11 6.408 13.78 11.332 27.78 14.15 30.72 6.18 65.086-1.4 72.496-15.995.443-.872.986-1.586 1.205-1.586.62 0 1.07 13.173.555 16.33-2.334 14.345-31.42 24.443-62.5 21.697zm2.39-23.917c-20.13-1.28-38.488-9.118-42.74-18.248C7.34 20.295 24.932 8.08 52.97 5.167c7.89-.82 23.188-.33 30.117.964 8.137 1.522 13.543 3.225 19.61 6.178 8.886 4.327 13.314 9.49 13.314 15.53 0 14.4-28.092 25.25-60.105 23.215z"/></g></svg>