<svg
  version="1.1"
  aria-labelledby="flask-logo-title"
  role="img"
  xmlns="http://www.w3.org/2000/svg"
  viewBox="0 0 64 64">
  <title id="flask-logo-title">Flask logo</title>
  <path d="M19.13,54.29c-2.44-1.92-5-3.76-6.82-6.35A51.5,51.5,0,0,1,3.72,32.54c-1.19-3.61-1.6-7.48-3.13-11-1.6-2.52.27-5.28,3-6.08,1.23-.24,3.39-1.4.78-0.57-2.34,1.72-2.57-1.56-.17-1.77A1.9,1.9,0,0,0,5.92,10.4C4.17,9.26,10.19,8,7.16,6.29,4,2.88,11.57,2.23,9.7,6.09c-0.45,3,5.29-.55,4,2.89,1.35,1.65,5.07.38,5,2.69,2,0.14,2.65,1.79,4.5,1.92,1.92,0.87,5.39,1.55,6,3.71-1.9,1.51-6.31-3.11-6.52,1.06,0.57,6.16.43,12.5,2.68,18.37,1.07,3.55,3.65,6.35,6,9.11a26.18,26.18,0,0,0,8.34,6.22,34.38,34.38,0,0,0,8.57,2.65c1.2-.91,3.31-4.31,5.17-2.88,0.09,1.61-3.7,3.37-.18,3.19,2.07-.62,3.5,1.6,5.21-0.41C60,56.48,65,53.43,63.84,57.23c-1.51,1-3.71.39-5.22,1.73-2.49-1.25-4.48,1.11-7.24.82a53.19,53.19,0,0,1-9.29.78C37,60.14,31.78,60,26.93,58.2a30.72,30.72,0,0,1-7.8-3.91h0Zm4.31,1.87a30.26,30.26,0,0,0,8.2,2.74c4.64,0.65,9.43,1.64,14.09.73-2.11-1-4.29.37-6.38-.68-2.52.54-5.22-.14-7.78-0.47-2.91-1.3-6.05-2.19-8.78-3.87-3.41-1.24,1.76,1.6,2.68,1.83,2.13,1.21-2.34-.62-3-1.12-1.78-1-2-.79-0.18.22,0.37,0.22.73,0.44,1.12,0.63h0Zm-5.08-3.59c2.59,1,0-1.82-1.2-1.66-0.52-.91-2-1.49-1-2-1.88.65-2-2.48-2.85-2-2-.63-0.77-2.85-3.14-4.22C10,41.25,7.85,40,7.17,37.83c-0.3-1.11-2.41-4.3-1.12-1.33,1.1,2.86,3,5.31,4.67,7.75,1.26,2.33,2.74,4.76,5,6.21,0.77,0.74,1.52,1.87,2.6,2.11h0Zm-7.45-8.18C11,44,11.38,45.24,10.91,44.39Zm10.54,9.33C22,53.46,20.63,53.39,21.45,53.72Zm1.4,0.51C22.71,53.52,22.21,54.63,22.85,54.23ZM24.61,55C25.45,54.17,23.32,54.46,24.61,55Zm3,1.68C28.13,55.89,26,56.36,27.62,56.64Zm-5.78-4C23.14,51.77,20.16,52.6,21.84,52.61Zm1.32,0.66C23.12,52.82,22.69,53.47,23.16,53.27Zm6.59,4.11c1.06,0.67,6.18,1.46,3,.27C32.18,57.77,26.77,56.12,29.75,57.38ZM19.29,49.23C19.18,48.79,17.64,48.74,19.29,49.23ZM22.35,51C23.15,50.46,20.7,50.59,22.35,51Zm2.58,1.58C26.08,52.17,23.08,52.17,24.93,52.6ZM18,47.88c1.24,1,5,.12,1.9-0.57-1.41-.75-4.6-1.27-2.43.45L18,47.88h0Zm8.64,5.27C27.2,52.27,24.51,52.65,26.68,53.15Zm-2.63-2.09c3,0.86-2.55-1.92-.75-0.32l0.4,0.18,0.35,0.14h0Zm5.26,3c2.88,0-2.6-.4,0,0h0ZM16.93,46.21C16.82,45.67,16.22,46.26,16.93,46.21ZM34.19,56.84C34.26,55.87,33.25,57.56,34.19,56.84ZM21.84,49.22C21.67,48.71,20.94,49.2,21.84,49.22Zm-4.64-3.34C18.86,45.77,14.94,45.15,17.21,45.87Zm-5.49-3.55C11.51,41.53,9.91,40.9,11.71,42.32Zm14.42,9.15C25.83,51.13,26,51.55,26.13,51.48Zm9,5.51C35.08,56.46,34.62,57.18,35.11,57Zm-9.77-6.33C25.5,50,23.93,50.45,25.34,50.66Zm-6.69-4.24C19.88,46.29,16.68,45.59,18.65,46.42Zm11.31,7C31.88,52.69,28.1,53.08,30,53.45Zm-5.88-4c2.21,0.28-2.63-1.5-.48-0.16l0.48,0.16h0Zm7.67,4.72c2.06-1.23,1.38,2.88,3.5.35,2.09-1.52-1.8,1.88.77,0.27,1.86-1.24,4.61.59,6.34,1.19,1.25-.06,2.46,1.08,3.74.39,2.46-.66-4.81-1-2.91-2.16-2.25.66-3.92-.78-5-2.22-2.53-.58-5.45-1.88-6.71-4.11C30.94,47,32.2,48,31,46.61a18.33,18.33,0,0,1-3.31-4.54c-1.22-.65-1.36-2.57-1.49-0.06,0-1.58-1.47-2.64-1.84-2.2,0-1.52,1.59-.76.47-1.89-0.24-1.58-1-3.22-1.27-5-0.37-.86-0.05-2.7-1.26-0.75-0.44,2.05-.15-2.52.54-1,0.9-1.54-.32-1.36-0.37-1.15,0.59-1.3.37-3.14-.15-2.44,0.31-1.38.49-5.07-.47-4.42,0.58-1.44,1.1-6.59-1.42-4.63a10.74,10.74,0,0,0-3.64.79c2.63,1.45-.26.52-1.33,0.29-0.14,1.34-1.2.76-2.52,0.77,2.11,0.26-1,2.16-2.24,1.42-1.58.75,1.36,2.63,0,3.21,0.16,0.88-2.41-.32-2.21,1.71-1.53-.64-0.21,2.4.55,1.37,2.6,0.7,1.83,2.31,1.9,3.83-0.42.89-2.09-2.09-.37-2-1.36-2.21-1.5-.8-2.63.23-0.26.07,2.88,1.46,0.91,2.14,1.73,0.27,1.78,1.78,2.14,2.74,1,1.09.83-1.2,2.08,0.11-0.79-1.16-4.18-3.27-1.45-2.6,0-1.17-.49-2.11.34-2.09,0.83-1.5-.87,3.7,1,1.79,0.52-.23.64-1.5,1.57,0.12,1.35,1.33.49,2.29-1.42,1.07,0.34,1.15,2.55,1.57,2.13,3.37,0.44,1.59,1.05,1,1.59.91,0.42,1.54.66,0.41,0.68-.33C19.48,37.86,19,39,19.63,39.79c1.33,0.6-1.9-4.06.38-1.4,2.4,2.16.9,3.06-1.25,2.72,1.36-.11,1.8,1.84,3.5,1.77,1.55,0.74,2.6,3.57-.07,2.39C21.25,44.44,18,43.4,20.65,45a63.38,63.38,0,0,1,6.83,3.27c1.71,1.22,2.45,2.62,3.1,2.89-1.44.69-4.33-.55-2.18-0.93-1.34-.24-2.85-0.92-1.56.75,1.09,0.91,3.87.81,4.36,0.92-0.42.93-1.15,1,0,1.07-1.3.69,0.42,0.8,0.54,1.19h0ZM29.1,46.68c-0.79-.83-1-2.37-0.14-1,0.44,0.18,1.4,2.53.14,1h0Zm8.64,5.49C38.23,52.13,37.75,52.54,37.74,52.17Zm-9.88-7.51C27.82,43.41,28.14,45.62,27.85,44.66ZM27,43.5C26,41.58,28.25,44,27,43.5Zm-10.4-7.18C17.18,36.17,16.88,37.32,16.59,36.32Zm8.28,4.49C25.23,39.46,25.29,41.94,24.87,40.81ZM19,36.74C18.61,36,19.89,37.44,19,36.74Zm5,1.61c-0.94-2.11.67-1.15,0.21,0.35L24,38.35h0Zm-8.66-5.77c-0.42-.69-1.12-2.72-0.89-3.34,0.2,1,2.14,4.34,1,1.38-1.32-2.48,1.57.81,1.87,1.42,0.14,0.62-.81-0.17-0.17,1.28C16,31.68,16.46,34.23,15.39,32.58Zm-2.68-1.84C12.82,29.13,13.32,31.84,12.71,30.73Zm1.2,0.41C14.49,29.94,14.89,32.84,13.91,31.15ZM11,28.91c-1-1-1.72-1.9,0-.61,0.68,0-1.51-2.07.16-.67C13,27.95,12.1,30.51,11,28.91Zm1.52,0C13.12,28.3,12.85,29.43,12.54,28.87Zm0.94,0.3C12.6,27.53,14.54,29.86,13.48,29.17Zm-1.86-1.78c-2.9-2.58,3.64,1.35.47,0.48l-0.47-.48h0Zm8.3,4.82c-1.25-.75-0.33-5.29.1-2.19,1.22-.39-0.07,1.6.84,1.58C20.71,32.87,20.3,33.32,19.91,32.21ZM23,34C23.1,32.66,23.24,35,23,34Zm-0.53-.53C22.59,32.92,22.46,34.19,22.45,33.5Zm-10.26-7c-1.86-2.57,5.41,2.6,1.19.65A1.48,1.48,0,0,1,12.18,26.55Zm5.91,3.13c-0.18-2.16.39,0.36,0,0h0Zm4.49,2.88C22.93,31.33,22.61,33.37,22.58,32.56Zm-10.11-7c1.11-.24,4.58,1.94,1.39.62C13.5,25.8,12.75,26,12.47,25.57ZM22,30.3c0.12-2.21.66-1.32,0,.32V30.3h0Zm-8.67-5.5c0.45-.66-1.2-3,0.24-0.83,0.62,0.49,1.79.82,0.76,1C15.92,26.43,13.89,25.38,13.29,24.8Zm8.2,4.81C21.8,27.09,21.77,31.08,21.49,29.61Zm-9.14-7.14C12.7,22.33,12.53,22.93,12.35,22.47Zm2.14,1.27C15,22.59,15.51,25,14.49,23.75Zm6,3.36C20.52,26.66,20.64,27.75,20.52,27.1Zm-0.35-.77C19.34,24.26,21,27.42,20.18,26.33ZM19.66,25c-0.14-.85.48,1.07,0,0h0Zm0.84-1.36c-0.57-1,.73-4.46.87-2.32-0.61,1.67-.17,2.6.25,0.36,0.78-1.76-.17,3.47-1.12,2h0Zm0.86-5.13C21.61,18.17,21.41,18.85,21.36,18.48Zm-1.44,28.3C19.58,46.49,20,47,19.92,46.78Zm3,1.5c1.65,0.42,1.64-.26.15-0.46-0.8-.74-3.32-1.53-1.07-0.09a1.6,1.6,0,0,0,.92.55h0ZM17,44.4c0.91,0.68,3.42,1.92,1.29.26,0.72-.83-1.37-1.27-0.68-1.83-1.76-1.08-1.39-1-.16-0.95-2.12-.95.31-0.87,0.19-1.36-0.82-.16-4.05-1.44-2.15.1-1.94-1-.46.37-1,0.22-2-.54,1.76,1.51-0.31,1,1.14,0.9,3.06,2.3.48,1C14.32,43.29,16.5,44,17,44.4h0Zm3.09,1.78C23.89,47.39,18.29,44.7,20.13,46.18ZM36,55.77C36,55,35.46,56.41,36,55.77Zm1.63,0.69c0.87-.84,0,1.34,1.44-0.21,0-1.11,0-1.76-1.61-.42-0.43.24-.63,1.26,0.17,0.62h0ZM11.76,40.23C11.49,39.18,9.89,39.19,11.76,40.23Zm1.74,1.14C12.85,40.3,11.19,40.4,13.49,41.37Zm9.89,6c1,0.86,4.44.63,1.17,0.11C24.07,46.72,21.49,46.9,23.39,47.33ZM37,55.73C38.47,54.48,35.54,56.29,37,55.73Zm3.09,2.12C40.08,57.45,39.43,58,40.07,57.85Zm0-.56c1.65-1.74-1.59.1,0,0h0ZM7.48,36.65c-1.4-2-.87-2.9-2.22-4.54C5,30.86,2.93,28,4.19,31,5.33,32.79,5.67,35.51,7.48,36.65ZM39.56,56.74C42.59,54.78,38.32,55.89,39.56,56.74Zm2.31,0.91C43.39,56.34,40.91,57.37,41.87,57.64ZM11.24,38C11.67,37.37,10.12,37.93,11.24,38ZM41.39,57c1.47-.95-0.34-0.8-0.27.09L41.39,57h0ZM21.47,44.47C21.41,43.83,20.69,44.52,21.47,44.47Zm1.23,0.71C22.31,44.38,22.1,45.3,22.7,45.18Zm21,12.49c1.88-1.36-1.14-.26-0.39.26l0.39-.26h0ZM43,57.32C44.56,56,41.41,57.89,43,57.32Zm3.68,2.45C47.73,59.08,45.46,59.55,46.71,59.77ZM12.18,37.55c1.38,0.31,5.51,3.4,3.07.21-1.25-.37-0.5-3.42-1.77-2.88,0.85,1.43.7,2-1.09,1.14-2.26-1.1-1.27.55-.83,1-0.6.14,0.79,0.52,0.62,0.53h0Zm-6.28-5c0.25-1-2.27-5.62-1.19-2.3C5.1,31,5.06,32.3,5.9,32.59ZM17.43,39.7C16.72,39.1,17.4,39.61,17.43,39.7Zm1.75,0.41C19.18,39,17.25,39.67,19.18,40.1Zm15.15,9.55c-0.29-.74-1.14,0,0,0h0Zm0.73,0.53C35,49.78,34.64,50.27,35.06,50.19Zm6,3.78C41.65,53.55,40.35,53.92,41.07,54ZM9,33.39C10.69,32.75,7.27,32.93,9,33.39Zm24,15.1C33,47.42,31.95,48.75,33,48.49ZM8.39,31.87C9.45,31.51,7.4,31.63,8.39,31.87Zm3.08,1.49C11.45,33,11.14,33.49,11.47,33.36ZM49,56.4c1.36-.28,4.47.69,5-0.36-1.66,0-5.73-1.17-5.93.27l0.36,0.06,0.59,0h0ZM12.45,33.61C12.47,32.52,11.6,33.57,12.45,33.61ZM4.35,28C4,25.92,2.95,27.68,4.35,28Zm1.93,0.49C6.3,27.81,4.51,27.88,6.28,28.47ZM7.38,29C7.06,28.76,7.13,29.34,7.38,29Zm6.95,4.46C14.65,33.17,13.55,33.25,14.33,33.47ZM6.65,27.79C6.46,26.23,4.41,27.56,6.65,27.79Zm-4-2.57C2.63,24.5,2.3,25.5,2.69,25.22Zm0.59-.44C3.18,23.93,2.77,24.89,3.28,24.78Zm3.25,1.94c1.38-.54-2.51-1.12-0.28-0.1Zm43.56,26.9C51,52.82,49,53.38,50.09,53.63Zm5.26,2.73C55.7,55.31,54.46,56.49,55.35,56.35ZM6.86,25C7,24,5.77,25.22,6.86,25Zm-4.63-3.1C2,20.49,2,18,4.4,18.83c-3.18.63,2.2,3.95,1.52,1.33,1.34,0.07,2.61-.79,1.91.51,2.63-.29,4.46-2.57,7-2.25a27.71,27.71,0,0,0,6.28-1.26c1.75-.13,3.44-2,2.48-3.13a27.18,27.18,0,0,0-7.54.62c-2.93.61-5.59,1.77-8.55,2.26S8.08,18,7.25,18.13C5.75,18.65,9,19,7.06,19.55c-1.23-.23-2.51-0.66-2-1.95-2.76.36-5.19,1.5-3,4.31H2.23Zm6.65-3.39c0.65-2.38,3.47,2,1.06.32A1.5,1.5,0,0,0,8.88,18.53ZM9,17.37C9.94,16.67,9.51,17.76,9,17.37Zm1.19,0c0.08-1.1,2.71.58,0.43,0.39l-0.43-.39h0Zm1.62-.65C12.41,16,12,17.35,11.82,16.74Zm0.42-.28c1-1.19,5.59-.76,2.22-0.12C13.55,15.66,12.86,16.74,12.23,16.46Zm6-.93C18.08,12.3,21.22,16.68,18.23,15.53Zm1.7,0c0.62-1.63,2.42-.65.29-0.33C20.27,15.37,20.16,16,19.94,15.52ZM6.19,24.18c1.86-1.14-2-1,0,0h0Zm1.38,0.38C8.22,23.87,6.15,24.28,7.57,24.56ZM3.51,21.68C4.58,20.87,2.25,21.37,3.51,21.68ZM58.45,56.06C58.49,55.11,57.64,56.48,58.45,56.06Zm-5.58-3.81C53,51.15,52.15,52.34,52.87,52.25ZM60,56.42c1.49,0,4.5-.46,1.27-0.46-0.51.08-3,.06-1.27,0.46h0ZM8.78,23.89c1.2-.08,1.88-1.33-0.23-1.26-3.28-.34,2.89,1.12-0.42.7C7.68,23.64,8.75,24,8.78,23.89Zm1.06,0.54C9.71,23.66,9.46,24.84,9.84,24.43Zm1.26-3.35C11.62,20.43,10.37,20.9,11.09,21.08Zm-4-6.69c2.15-.73,5.08-1.55,6.1.36-1-1.24-.42-2.46.56-0.65,1.38,1.84,2.07-.84,1.17-1.45,1,1.27,2.18,1.87.68,0.08,1.63-2-3.26.26-4.37,0.23C10.69,13.2,5.71,14.23,7.09,14.39ZM8.35,12c1.22-.92,4.23.55,2.3-0.92C10.46,10.89,6.42,12.17,8.35,12Zm4.46,0.18c1.43,0-.62-1.93,1.09-1-0.28-.92-2-1.09-2.82-1.45C10.61,10.51,12,12.17,12.81,12.16ZM9.13,8.11C9.63,7.44,8.26,8.45,9.13,8.11ZM11,8.55c2.31-.31-0.59-1-0.47,0l0.47,0h0ZM7.55,5.88C5.92,3.76,10.61,6.24,9,4,7.57,2.91,6.23,5.26,7.55,5.88ZM28.42,17.12c0.75-1.32-3.08-1.78-.5-0.47C28.15,16.73,28.1,17.21,28.42,17.12Z" transform="translate(0 -3.45)" fill="#ffffff"/>
</svg>
