<svg width="64" height="64" viewBox="0 0 64 64" xmlns="http://www.w3.org/2000/svg"><g fill="none"><rect width="64" height="64" rx="4" fill="#B244DB"/><path d="M8.894 27V15.95h7.208v2.448h-4.284v2.108h3.672v2.448h-3.672V27H8.894zm7.924 0V15.95H21c.59 0 1.15.057 1.683.17a3.857 3.857 0 0 1 1.411.578c.408.272.731.64.97 1.105.237.453.356 1.026.356 1.717 0 .793-.164 1.45-.493 1.972-.317.521-.748.93-1.292 1.224L26.032 27h-3.264l-1.904-3.706h-1.122V27h-2.924zm2.924-6.018h1.054c1.179 0 1.768-.487 1.768-1.462 0-.476-.153-.805-.459-.986-.295-.181-.73-.272-1.309-.272h-1.054v2.72zm11.252 6.222c-.77 0-1.473-.13-2.108-.391a4.606 4.606 0 0 1-1.615-1.122c-.442-.499-.788-1.105-1.037-1.819-.25-.725-.374-1.541-.374-2.448s.125-1.711.374-2.414c.25-.714.595-1.309 1.037-1.785a4.42 4.42 0 0 1 1.615-1.105c.635-.25 1.337-.374 2.108-.374.76 0 1.456.125 2.091.374.635.25 1.173.618 1.615 1.105.453.487.805 1.082 1.054 1.785.25.703.374 1.507.374 2.414 0 .907-.125 1.723-.374 2.448-.25.714-.6 1.32-1.054 1.819a4.41 4.41 0 0 1-1.615 1.122 5.452 5.452 0 0 1-2.09.391zm0-2.516c.669 0 1.19-.289 1.564-.867.385-.59.578-1.388.578-2.397s-.193-1.785-.578-2.329c-.374-.555-.895-.833-1.564-.833s-1.196.278-1.58.833c-.375.544-.562 1.32-.562 2.329 0 1.009.187 1.808.561 2.397.385.578.912.867 1.581.867zM36.917 27V15.95h2.992l2.448 4.93 1.054 2.482h.068a73.457 73.457 0 0 0-.12-.969 30.991 30.991 0 0 1-.118-1.071l-.102-1.105a17.705 17.705 0 0 1-.034-1.071V15.95h2.788V27H42.9l-2.448-4.947-1.054-2.465h-.068c.068.635.147 1.326.238 2.074.09.748.136 1.462.136 2.142V27h-2.788zm12.34 0v-8.602h-2.924V15.95h8.772v2.448H52.18V27h-2.924zM9.073 48V31.1h10.92v3.744h-6.448v2.652h5.512v3.744h-5.512v3.016h6.708V48H9.073zm14.447 0V31.1h4.576l3.744 7.54 1.612 3.796h.104c-.052-.45-.112-.945-.182-1.482-.069-.537-.13-1.083-.182-1.638l-.156-1.69a27.174 27.174 0 0 1-.052-1.638V31.1h4.264V48h-4.576l-3.744-7.566-1.612-3.77h-.104c.104.97.226 2.028.364 3.172.14 1.144.208 2.236.208 3.276V48H23.52zm17.47 0V31.1h4.991c1.283 0 2.453.156 3.51.468 1.075.312 1.993.806 2.756 1.482.763.676 1.352 1.543 1.768 2.6.434 1.057.65 2.331.65 3.822 0 1.49-.208 2.773-.624 3.848-.416 1.075-1.005 1.959-1.768 2.652-.745.693-1.638 1.205-2.678 1.534-1.023.33-2.14.494-3.354.494H40.99zm4.471-3.588h.26c.607 0 1.179-.07 1.716-.208a3.289 3.289 0 0 0 1.378-.78c.399-.364.71-.867.936-1.508.226-.641.338-1.456.338-2.444s-.112-1.794-.338-2.418c-.225-.624-.537-1.11-.936-1.456a2.985 2.985 0 0 0-1.378-.702 6.844 6.844 0 0 0-1.716-.208h-.26v9.724z" fill="#EDD2F7"/><path d="M4 9h56v2H4V9zM32 6l4 3h-8l4-3z" fill="#7A1F9C"/><g><path d="M60 55H4v-2h56v2zM32 58l-4-3h8l-4 3z" fill="#7A1F9C"/></g></g></svg>