<svg width="128" height="128" xmlns="http://www.w3.org/2000/svg" preserveAspectRatio="xMidYMid"><path fill="none" d="M-1-1h130v130H-1z"/><g><path d="M90.417 87.013S103.54 79.85 103.54 73.84c0-6.527-9.187-9.22-9.187-9.22s13.34.414 13.123 9.22c-.217 8.808-17.06 13.173-17.06 13.173zM33.99 73.84c-6.927-3.315 14.433-9.22 14.433-9.22-23.702 11.07 8.112 9.91 27.558 7.903 6.79-.7 14.437-2.634 14.437-2.634-9.49 10.41-49.504 7.263-56.428 3.95zm36.74 23.713c5.428-.513 11.81-2.635 11.81-2.635-4.826 6.862-28.12 6.44-34.12 3.95-5.996-2.487-5.247-7.902-5.247-7.902 3.905 5.24 17.627 7.52 27.558 6.585v.003zM83.855 84.38s-28.442 6.98-38.057 2.633c-8.495-3.84-1.312-7.904-1.312-7.904-6.326 8.41 39.37 5.267 39.37 5.267v.003zm-23.62 23.707c29.75 0 41.993-5.27 41.993-5.27-4.177 11.075-71.06 12.268-77.425 3.95-4.495-5.872 13.123-7.902 13.123-7.902-12.654 6.35-7.442 9.22 22.31 9.22v.002zm45.93 0c-24.52 17.203-65.614 6.586-65.614 6.586 42.407 3.604 65.614-6.587 65.614-6.587h.002z" fill="#477ed0"/><path d="M64.17 63.302s-14.697-7.318-13.122-19.76c1.837-14.518 20.292-20.14 24.25-26.81 3.537-5.963 1.995-14.025 1.995-14.025s3.862 6.457 2.625 11.856c-1.764 7.697-8.683 12.134-16.9 17.413-6.152 3.952-16.1 8.37 1.153 31.326z" fill="#ec282c"/><path d="M72.045 67.254s2.737-6.61-3.938-14.49c-6.675-7.88 2.33-22.155 20.997-26.346 0 0-22.4 9.835-17.195 21.647 1.925 4.372 4.883 8.17 3.386 12.702-2.08 6.298-3.252 6.487-3.252 6.487z" fill="#ec282c"/></g></svg>