<?xml version="1.0" encoding="iso-8859-1"?>
<!-- Generator: Adobe Illustrator 19.1.1, SVG Export Plug-In . SVG Version: 6.00 Build 0)  -->
<svg version="1.1"  xmlns="http://www.w3.org/2000/svg" xmlns:xlink="http://www.w3.org/1999/xlink" x="0px" y="0px"
	 viewBox="0 0 48 48" style="enable-background:new 0 0 48 48;" xml:space="preserve">
<circle style="fill:#CFD8DC;" cx="24" cy="24" r="19"/>
<path style="fill:#455A64;" d="M21,24c0-1.657,1.343-3,3-3s3,1.343,3,3s-1.343,3-3,3S21,25.657,21,24z M34,27c1.657,0,3-1.343,3-3
	s-1.343-3-3-3s-3,1.343-3,3S32.343,27,34,27z M14,27c1.657,0,3-1.343,3-3s-1.343-3-3-3s-3,1.343-3,3S12.343,27,14,27z"/>
</svg>
