<svg width="128" height="128" xmlns="http://www.w3.org/2000/svg"><path fill="none" d="M-1-1h130v130H-1z"/><g><path stroke="null" d="M105.48 70.396c-4.018.023-7.498.988-10.417 2.425-1.078-2.132-2.156-3.996-2.336-5.388-.202-1.617-.45-2.605-.202-4.536s1.37-4.67 1.37-4.895c-.022-.2-.247-1.19-2.56-1.21-2.313-.024-4.31.448-4.535 1.054s-.674 2-.966 3.436c-.404 2.11-4.626 9.588-7.028 13.517-.786-1.527-1.46-2.874-1.594-3.952-.203-1.617-.45-2.605-.203-4.536s1.37-4.67 1.37-4.896c-.023-.202-.248-1.19-2.56-1.212-2.313-.023-4.312.45-4.536 1.055s-.472 2.044-.966 3.436c-.47 1.392-6.085 13.876-7.544 17.132-.74 1.662-1.393 2.987-1.864 3.885s-.023.067-.068.157c-.404.763-.628 1.19-.628 1.19v.023c-.315.56-.65 1.1-.81 1.1-.11 0-.335-1.505.046-3.57.83-4.334 2.852-11.093 2.83-11.34 0-.112.38-1.302-1.303-1.908-1.64-.607-2.223.404-2.357.404-.135 0-.247.36-.247.36s1.818-7.613-3.48-7.613c-3.324 0-7.905 3.615-10.173 6.916-1.437.785-4.49 2.446-7.724 4.22-1.235.674-2.515 1.392-3.727 2.044l-.248-.27c-6.422-6.848-18.3-11.698-17.806-20.905.18-3.346 1.347-12.17 22.813-22.86 17.58-8.756 31.66-6.353 34.107-1.01 3.48 7.635-7.522 21.826-25.8 23.87-6.96.785-10.62-1.91-11.54-2.92-.967-1.055-1.102-1.1-1.46-.898-.585.315-.225 1.258 0 1.82.538 1.414 2.783 3.928 6.6 5.186 3.346 1.1 11.52 1.706 21.4-2.11 11.07-4.29 19.714-16.19 17.177-26.137-2.582-10.126-19.378-13.45-35.253-7.814-9.452 3.37-19.69 8.623-27.056 15.516-8.758 8.174-10.15 15.314-9.566 18.278C8.68 68.016 23.254 74.91 29.092 80.006c-.292.158-.56.315-.808.45-2.92 1.437-14.034 7.252-16.818 13.405-3.144 6.96.494 11.97 2.92 12.642 7.5 2.09 15.178-1.66 19.332-7.836 4.13-6.175 3.637-14.19 1.73-17.85l-.07-.136 2.292-1.347c1.482-.876 2.94-1.684 4.22-2.38-.717 1.953-1.234 4.266-1.503 7.634-.315 3.952 1.302 9.072 3.435 11.092.943.875 2.066.898 2.762.898 2.47 0 3.593-2.044 4.828-4.49 1.527-2.988 2.874-6.446 2.874-6.446s-1.684 9.364 2.92 9.364c1.683 0 3.367-2.178 4.13-3.3v.022s.045-.068.135-.225c.18-.27.27-.427.27-.427v-.045c.674-1.166 2.18-3.838 4.424-8.262 2.897-5.703 5.68-12.843 5.68-12.843s.27 1.75 1.1 4.625c.495 1.707 1.573 3.57 2.404 5.39-.674.942-1.078 1.48-1.078 1.48l.023.024c-.54.718-1.146 1.48-1.774 2.245-2.292 2.738-5.03 5.86-5.39 6.758-.427 1.055-.337 1.84.494 2.47.606.45 1.684.538 2.83.45 2.065-.136 3.502-.652 4.22-.967 1.123-.403 2.403-1.01 3.638-1.907 2.245-1.662 3.615-4.02 3.48-7.163-.067-1.73-.628-3.436-1.325-5.053.203-.29.405-.583.607-.898 3.547-5.188 6.287-10.89 6.287-10.89s.27 1.75 1.1 4.625c.428 1.46 1.28 3.053 2.044 4.625-3.323 2.717-5.41 5.86-6.13 7.926-1.324 3.818-.29 5.547 1.662 5.95.876.18 2.133-.224 3.076-.628 1.168-.382 2.583-1.033 3.885-1.998 2.245-1.662 4.4-3.975 4.29-7.096-.07-1.437-.45-2.852-.967-4.2 2.83-1.166 6.49-1.84 11.137-1.28 9.992 1.17 11.968 7.41 11.587 10.016-.382 2.605-2.47 4.042-3.166 4.49-.696.427-.92.585-.854.9.09.47.405.448 1.01.358.832-.135 5.255-2.133 5.435-6.938.268-6.175-5.592-12.91-15.99-12.844zm-77.06 25.98c-3.302 3.615-7.95 4.984-9.926 3.817-2.133-1.235-1.302-6.557 2.762-10.397 2.47-2.335 5.68-4.49 7.79-5.815.473-.29 1.19-.718 2.045-1.234.135-.09.225-.135.225-.135.157-.09.337-.2.517-.313 1.504 5.48.067 10.284-3.413 14.08zm24.137-16.414c-1.145 2.806-3.57 10.014-5.03 9.61-1.257-.337-2.02-5.793-.247-11.182.898-2.717 2.807-5.95 3.93-7.208 1.818-2.02 3.794-2.695 4.288-1.864.584 1.078-2.223 8.892-2.94 10.644zm19.917 9.52c-.494.247-.943.427-1.145.292-.16-.09.2-.427.2-.427s2.493-2.672 3.48-3.907c.562-.718 1.236-1.55 1.955-2.492v.27c0 3.233-3.1 5.388-4.49 6.264zm15.358-3.503c-.36-.27-.314-1.1.9-3.706.47-1.033 1.548-2.762 3.412-4.4.224.673.36 1.324.336 1.93-.022 4.042-2.896 5.547-4.648 6.175z" fill="#CF649A"/></g></svg>