<svg width="128" height="128" xmlns="http://www.w3.org/2000/svg"><path fill="none" d="M-1-1h130v130H-1z"/><g><path stroke-width="1.5" stroke="#000" fill="#222" d="M-1-1h130v130H-1z"/><path fill="#eee" d="M39.45 113.17q6.08 0 6.08-4.16 0-1.28-.56-2.16-.52-.92-1.44-1.56-.92-.68-2.12-1.16-1.16-.48-2.48-.96-1.52-.52-2.88-1.16-1.36-.68-2.36-1.56-1-.92-1.6-2.16-.56-1.24-.56-3 0-3.64 2.48-5.68t6.84-2.04q2.52 0 4.56.56 2.08.52 3.04 1.16l-1.24 3.16q-.84-.52-2.52-1-1.64-.52-3.84-.52-1.12 0-2.08.24t-1.68.72-1.16 1.24q-.4.72-.4 1.72 0 1.12.44 1.88t1.24 1.36q.8.56 1.84 1.04 1.08.48 2.36.96 1.8.72 3.28 1.44 1.52.72 2.6 1.72 1.12 1 1.72 2.4.6 1.36.6 3.32 0 3.64-2.68 5.6-2.64 1.96-7.48 1.96-1.64 0-3.04-.24-1.36-.2-2.44-.48-1.08-.32-1.88-.64-.76-.36-1.2-.6l1.16-3.2q.92.52 2.8 1.16t4.6.64zM54.02 115.93v-30.4l3.72-.64v10.64q1.04-.4 2.2-.6 1.2-.24 2.36-.24 2.48 0 4.12.72 1.64.68 2.6 1.96 1 1.24 1.4 3t.4 3.88v11.68H67.1v-10.88q0-1.92-.28-3.28-.24-1.36-.84-2.2t-1.6-1.2q-1-.4-2.48-.4-.6 0-1.24.08t-1.24.2q-.56.08-1.04.2-.44.12-.64.2v17.28h-3.72zM75.67 105.57q0-2.76.8-4.8.8-2.08 2.12-3.44t3.04-2.04 3.52-.68q4.2 0 6.44 2.64 2.24 2.6 2.24 7.96v.64q0 .36-.04.68H79.55q.24 3.24 1.88 4.92t5.12 1.68q1.96 0 3.28-.32 1.36-.36 2.04-.68l.52 3.12q-.68.36-2.4.76-1.68.4-3.84.4-2.72 0-4.72-.8-1.96-.84-3.24-2.28t-1.92-3.4q-.6-2-.6-4.36zm14.28-2.04q.04-2.52-1.28-4.12-1.28-1.64-3.56-1.64-1.28 0-2.28.52-.96.48-1.64 1.28t-1.08 1.84q-.36 1.04-.48 2.12h10.32zM105.42 116.33q-3.44-.08-4.88-1.48t-1.44-4.36V85.53l3.72-.64v25q0 .92.16 1.52t.52.96.96.56q.6.16 1.48.28l-.52 3.12zM116.36 116.33q-3.44-.08-4.88-1.48t-1.44-4.36V85.53l3.72-.64v25q0 .92.16 1.52t.52.96.96.56q.6.16 1.48.28l-.52 3.12z"/></g></svg>