<?xml version="1.0" encoding="iso-8859-1"?>
<!-- Generator: Adobe Illustrator 18.0.0, SVG Export Plug-In . SVG Version: 6.00 Build 0)  -->
<!DOCTYPE svg PUBLIC "-//W3C//DTD SVG 1.1//EN" "http://www.w3.org/Graphics/SVG/1.1/DTD/svg11.dtd">
<svg version="1.1" id="Capa_1" xmlns="http://www.w3.org/2000/svg" xmlns:xlink="http://www.w3.org/1999/xlink" x="0px" y="0px"
	 viewBox="0 0 301.912 301.912" style="enable-background:new 0 0 301.912 301.912;" xml:space="preserve">
<path d="M244.948,137.181c0.001,0,0,0,0.001,0c15.248,0,29.576-5.947,40.341-16.746c14.694-14.74,20.177-36.316,14.308-56.309
	c-0.341-1.163-1.272-2.06-2.446-2.358c-1.174-0.301-2.42,0.044-3.276,0.902l-35.874,35.983c-2.153-0.872-7.577-3.85-17.615-13.857
	c-10.038-10.008-13.034-15.423-13.915-17.574l35.873-35.985c0.856-0.858,1.195-2.106,0.893-3.279
	c-0.303-1.174-1.202-2.102-2.367-2.439c-5.17-1.499-10.528-2.26-15.925-2.26c-15.249,0-29.557,5.964-40.337,16.744
	c-31.338,31.338-11.863,62.861-11.863,62.861l-35.144,35.145c-8.577-7.223-17.882-14.376-28.145-21.415
	c-2.314-1.587-5.327-1.536-7.569,0.012c-5.583-6.21-11.518-12.441-18.202-18.615l3.808-3.808c2.765-2.765,3.113-7.03,1.047-10.174
	c0.064-0.107,0.123-0.219,0.188-0.326c2.971-4.893,6.354-9.408,10.199-13.644c7.708-8.788,18.703-14.988,30.091-17.399
	c4.963-1.053,10.107-1.42,15.169-0.988c1.589,0.134,3.983,1.039,5.462,0.334c2.215-1.056,2.178-4.322-0.053-5.333
	c-8.266-5.42-18.581-8.166-28.346-8.907c-21.734-1.649-42.848,6.65-60.224,19.315c-2.963-1.288-6.537-0.729-8.96,1.695
	L42.896,87.926c-2.636,2.636-3.067,6.633-1.312,9.724c-2.865,3.145-5.868,6.157-9,9.035c-1.362-0.358-2.774-0.56-4.221-0.56
	c-4.409,0-8.554,1.717-11.672,4.833L4.834,122.815C1.717,125.933,0,130.077,0,134.486c0,4.409,1.717,8.554,4.834,11.672
	l15.259,15.258c3.117,3.117,7.262,4.834,11.67,4.834c4.408,0,8.553-1.717,11.669-4.834l11.858-11.857
	c3.117-3.118,4.834-7.263,4.834-11.671c0-1.061-0.104-2.106-0.299-3.127c3.07-3.368,6.296-6.589,9.671-9.65
	c2.935,1.211,6.438,0.627,8.823-1.758l3.809-3.81c6.174,6.684,12.405,12.619,18.615,18.202c-1.548,2.241-1.599,5.255-0.012,7.569
	c7.04,10.263,14.193,19.567,21.416,28.145l-65.864,65.863c-8.228,8.23-8.228,21.618-0.001,29.844
	c3.985,3.986,9.284,6.182,14.92,6.182c5.637,0,10.937-2.196,14.922-6.184l64.961-64.96c12.091,11.622,24.211,22.082,36.163,32.392
	c14.497,12.506,29.487,25.437,43.913,40.069c1.25,1.267,2.953,1.982,4.732,1.989h0.023c1.771,0,3.469-0.703,4.722-1.956
	l20.198-20.197c1.258-1.259,1.962-2.967,1.956-4.746c-0.006-1.778-0.722-3.481-1.989-4.731
	c-14.631-14.425-27.561-29.415-40.066-43.911c-10.31-11.953-20.77-24.074-32.393-36.166l34.104-34.379
	C229.466,135.584,237.084,137.181,244.948,137.181z"/>
<g>
</g>
<g>
</g>
<g>
</g>
<g>
</g>
<g>
</g>
<g>
</g>
<g>
</g>
<g>
</g>
<g>
</g>
<g>
</g>
<g>
</g>
<g>
</g>
<g>
</g>
<g>
</g>
<g>
</g>
</svg>
